{
  "accessors": [
    {
      "bufferView": 2,
      "componentType": 5126,
      "count": 3160,
      "max": [
        1.1083979606628418,
        0.45117199420928955,
        1.9970699548721313
      ],
      "min": [
        -1.1083979606628418,
        -0.2929689884185791,
        -0.009277000091969967
      ],
      "type": "VEC3"
    },
    {
      "bufferView": 2,
      "byteOffset": 37920,
      "componentType": 5126,
      "count": 3160,
      "max": [
        0.9998971223831177,
        0.9998078942298889,
        0.9994319677352905
      ],
      "min": [
        -0.9988646507263184,
        -0.9999920129776001,
        -0.9993056058883667
      ],
      "type": "VEC3"
    },
    {
      "bufferView": 1,
      "componentType": 5126,
      "count": 3160,
      "max": [
        0.9956049919128418,
        0.9969620108604431
      ],
      "min": [
        0.0020810000132769346,
        0.005371000152081251
      ],
      "type": "VEC2"
    },
    {
      "bufferView": 0,
      "componentType": 5125,
      "count": 13722,
      "type": "SCALAR"
    },
    {
      "bufferView": 2,
      "byteOffset": 75840,
      "componentType": 5126,
      "count": 988,
      "max": [
        0.35913100838661194,
        0.08209200203418732,
        2.904297113418579
      ],
      "min": [
        -0.40698200464248657,
        -0.8168950080871582,
        2.023437976837158
      ],
      "type": "VEC3"
    },
    {
      "bufferView": 2,
      "byteOffset": 87696,
      "componentType": 5126,
      "count": 988,
      "max": [
        0.9998367428779602,
        0.9980403780937195,
        0.9993370771408081
      ],
      "min": [
        -0.9999793767929077,
        -0.9967905282974243,
        -0.9999701976776123
      ],
      "type": "VEC3"
    },
    {
      "bufferView": 1,
      "byteOffset": 25280,
      "componentType": 5126,
      "count": 988,
      "max": [
        0.9921879768371582,
        0.9890140295028687
      ],
      "min": [
        0.006831999868154526,
        0.005371000152081251
      ],
      "type": "VEC2"
    },
    {
      "bufferView": 0,
      "byteOffset": 54888,
      "componentType": 5125,
      "count": 4440,
      "type": "SCALAR"
    },
    {
      "bufferView": 2,
      "byteOffset": 99552,
      "componentType": 5126,
      "count": 228,
      "max": [
        0.24706999957561493,
        -0.5844720005989075,
        2.2597649097442627
      ],
      "min": [
        -0.20947299897670746,
        -0.7890620231628418,
        2.054687023162842
      ],
      "type": "VEC3"
    },
    {
      "bufferView": 2,
      "byteOffset": 102288,
      "componentType": 5126,
      "count": 228,
      "max": [
        0.9999991655349731,
        0.9999970197677612,
        0.9999969005584717
      ],
      "min": [
        -0.9999992847442627,
        -0.9999972581863403,
        -0.9999969005584717
      ],
      "type": "VEC3"
    },
    {
      "bufferView": 1,
      "byteOffset": 33184,
      "componentType": 5126,
      "count": 228,
      "max": [
        1.0,
        1.0
      ],
      "min": [
        -0.0,
        0.0
      ],
      "type": "VEC2"
    },
    {
      "bufferView": 0,
      "byteOffset": 72648,
      "componentType": 5125,
      "count": 1296,
      "type": "SCALAR"
    },
    {
      "bufferView": 2,
      "byteOffset": 105024,
      "componentType": 5126,
      "count": 3905,
      "max": [
        1.3505860567092896,
        0.5361329913139343,
        2.095702886581421
      ],
      "min": [
        -1.3505860567092896,
        -0.5649409890174866,
        0.0011279999744147062
      ],
      "type": "VEC3"
    },
    {
      "bufferView": 2,
      "byteOffset": 151884,
      "componentType": 5126,
      "count": 3905,
      "max": [
        0.9999998807907104,
        0.9998831748962402,
        1.0
      ],
      "min": [
        -1.0,
        -0.9999977350234985,
        -1.0
      ],
      "type": "VEC3"
    },
    {
      "bufferView": 1,
      "byteOffset": 35008,
      "componentType": 5126,
      "count": 3905,
      "max": [
        0.9897459745407104,
        0.9967079758644104
      ],
      "min": [
        0.006328999996185303,
        0.006347999908030033
      ],
      "type": "VEC2"
    },
    {
      "bufferView": 0,
      "byteOffset": 77832,
      "componentType": 5125,
      "count": 18390,
      "type": "SCALAR"
    },
    {
      "bufferView": 2,
      "byteOffset": 198744,
      "componentType": 5126,
      "count": 2052,
      "max": [
        0.3337399959564209,
        0.14953599870204926,
        2.574218988418579
      ],
      "min": [
        -0.39208999276161194,
        -0.7563480138778687,
        -0.0016759999562054873
      ],
      "type": "VEC3"
    },
    {
      "bufferView": 2,
      "byteOffset": 223368,
      "componentType": 5126,
      "count": 2052,
      "max": [
        0.9999839067459106,
        0.9979877471923828,
        0.9999010562896729
      ],
      "min": [
        -0.999522864818573,
        -0.9998025298118591,
        -0.9999750852584839
      ],
      "type": "VEC3"
    },
    {
      "bufferView": 1,
      "byteOffset": 66248,
      "componentType": 5126,
      "count": 2052,
      "max": [
        0.9980469942092896,
        0.9966599941253662
      ],
      "min": [
        0.0017600000137463212,
        0.009277000091969967
      ],
      "type": "VEC2"
    },
    {
      "bufferView": 0,
      "byteOffset": 151392,
      "componentType": 5125,
      "count": 10668,
      "type": "SCALAR"
    }
  ],
  "asset": {
    "extras": {
      "author": "Tigerar1 (https://sketchfab.com/allanromanreyes)",
      "license": "SKETCHFAB Standard (https://sketchfab.com/licenses)",
      "source": "https://sketchfab.com/3d-models/party-brainz-bf0ebde6a6db4920bb29fc01b81cb2dd",
      "title": "Party Brainz"
    },
    "generator": "Sketchfab-16.15.0",
    "version": "2.0"
  },
  "bufferViews": [
    {
      "buffer": 0,
      "byteLength": 194064,
      "name": "floatBufferViews",
      "target": 34963
    },
    {
      "buffer": 0,
      "byteLength": 82664,
      "byteOffset": 194064,
      "byteStride": 8,
      "name": "floatBufferViews",
      "target": 34962
    },
    {
      "buffer": 0,
      "byteLength": 247992,
      "byteOffset": 276728,
      "byteStride": 12,
      "name": "floatBufferViews",
      "target": 34962
    }
  ],
  "buffers": [
    {
      "byteLength": 524720,
      "uri": "scene.bin"
    }
  ],
  "images": [
    {
      "uri": "textures/superhero_costume_newwave_color_baseColor.png"
    },
    {
      "uri": "textures/superhero_costume_newwaveaccessories_color_baseColor.png"
    },
    {
      "uri": "textures/superhero_head_captainbrainz_color_baseColor.png"
    },
    {
      "uri": "textures/superhero_headprop_newwave_color_baseColor.png"
    },
    {
      "uri": "textures/zombieeyes_color_baseColor.png"
    }
  ],
  "materials": [
    {
      "doubleSided": true,
      "name": "superhero_costume_newwave_color",
      "pbrMetallicRoughness": {
        "baseColorTexture": {
          "index": 0
        },
        "metallicFactor": 0.0,
        "roughnessFactor": 0.9686983083985342
      }
    },
    {
      "doubleSided": true,
      "name": "superhero_costume_newwaveaccessories_color",
      "pbrMetallicRoughness": {
        "baseColorTexture": {
          "index": 1
        },
        "metallicFactor": 0.0,
        "roughnessFactor": 0.9373966167970685
      }
    },
    {
      "doubleSided": true,
      "name": "superhero_head_captainbrainz_color",
      "pbrMetallicRoughness": {
        "baseColorTexture": {
          "index": 2
        },
        "metallicFactor": 0.0
      }
    },
    {
      "doubleSided": true,
      "name": "superhero_headprop_newwave_color",
      "pbrMetallicRoughness": {
        "baseColorTexture": {
          "index": 3
        },
        "metallicFactor": 0.0,
        "roughnessFactor": 0.9686983083985342
      }
    },
    {
      "doubleSided": true,
      "name": "zombieeyes_color",
      "pbrMetallicRoughness": {
        "baseColorTexture": {
          "index": 4
        },
        "metallicFactor": 0.0,
        "roughnessFactor": 0.9686983083985342
      }
    }
  ],
  "meshes": [
    {
      "name": "Object_0",
      "primitives": [
        {
          "attributes": {
            "NORMAL": 1,
            "POSITION": 0,
            "TEXCOORD_0": 2
          },
          "indices": 3,
          "material": 0,
          "mode": 4
        }
      ]
    },
    {
      "name": "Object_1",
      "primitives": [
        {
          "attributes": {
            "NORMAL": 5,
            "POSITION": 4,
            "TEXCOORD_0": 6
          },
          "indices": 7,
          "material": 3,
          "mode": 4
        }
      ]
    },
    {
      "name": "Object_2",
      "primitives": [
        {
          "attributes": {
            "NORMAL": 9,
            "POSITION": 8,
            "TEXCOORD_0": 10
          },
          "indices": 11,
          "material": 4,
          "mode": 4
        }
      ]
    },
    {
      "name": "Object_3",
      "primitives": [
        {
          "attributes": {
            "NORMAL": 13,
            "POSITION": 12,
            "TEXCOORD_0": 14
          },
          "indices": 15,
          "material": 1,
          "mode": 4
        }
      ]
    },
    {
      "name": "Object_4",
      "primitives": [
        {
          "attributes": {
            "NORMAL": 17,
            "POSITION": 16,
            "TEXCOORD_0": 18
          },
          "indices": 19,
          "material": 2,
          "mode": 4
        }
      ]
    }
  ],
  "nodes": [
    {
      "children": [
        1
      ],
      "matrix": [
        1.0,
        0.0,
        0.0,
        0.0,
        0.0,
        2.220446049250313e-16,
        -1.0,
        0.0,
        0.0,
        1.0,
        2.220446049250313e-16,
        0.0,
        0.0,
        0.0,
        0.0,
        1.0
      ],
      "name": "Sketchfab_model"
    },
    {
      "children": [
        2,
        3,
        4,
        5,
        6
      ],
      "name": "superhero_newwave_mesh.obj.cleaner.materialmerger.gles"
    },
    {
      "mesh": 0,
      "name": "Object_2"
    },
    {
      "mesh": 1,
      "name": "Object_3"
    },
    {
      "mesh": 2,
      "name": "Object_4"
    },
    {
      "mesh": 3,
      "name": "Object_5"
    },
    {
      "mesh": 4,
      "name": "Object_6"
    }
  ],
  "samplers": [
    {
      "magFilter": 9729,
      "minFilter": 9987,
      "wrapS": 10497,
      "wrapT": 10497
    }
  ],
  "scene": 0,
  "scenes": [
    {
      "name": "Sketchfab_Scene",
      "nodes": [
        0
      ]
    }
  ],
  "textures": [
    {
      "sampler": 0,
      "source": 0
    },
    {
      "sampler": 0,
      "source": 1
    },
    {
      "sampler": 0,
      "source": 2
    },
    {
      "sampler": 0,
      "source": 3
    },
    {
      "sampler": 0,
      "source": 4
    }
  ]
}
