<svg width="114" height="113" viewBox="0 0 114 113" fill="none" xmlns="http://www.w3.org/2000/svg">
<rect x="2.96677" y="2.48368" width="108.066" height="108.066" rx="13.1654" fill="#3D490A" stroke="#C5F404" stroke-width="4.38848"/>
<path d="M5.16098 33.7518L8.05082 36.2804C9.00318 37.1138 9.54946 38.3176 9.54946 39.5831V73.4511C9.54946 74.7165 9.00318 75.9204 8.05082 76.7537L5.16098 79.2823V33.7518Z" fill="#C5F404"/>
<path d="M108.839 79.2823L105.949 76.7537C104.997 75.9204 104.45 74.7165 104.45 73.4511L104.45 39.5831C104.45 38.3176 104.997 37.1138 105.949 36.2804L108.839 33.7518L108.839 79.2823Z" fill="#C5F404"/>
<path fill-rule="evenodd" clip-rule="evenodd" d="M79.7304 75.9863C76.355 78.0385 67.4737 79.5065 57.0486 79.5065C46.2984 79.5065 37.1898 77.9455 34.0672 75.7927C33.318 76.9133 32.9134 78.5007 32.9134 80.7145C32.9134 82.761 43.7188 87.2728 57.0483 87.2728C70.3778 87.2728 81.1835 82.6382 81.1835 80.7147C81.1835 78.5463 80.6706 77.0307 79.7304 75.9863Z" fill="white"/>
<path fill-rule="evenodd" clip-rule="evenodd" d="M28.1454 50.7558C29.6057 50.7025 30.952 50.2022 32.0514 49.3876C33.8637 54.6952 39.1888 58.2038 44.9827 57.5158C51.6471 56.7243 56.4081 50.6802 55.6167 44.0158L55.1834 40.3675C55.7928 40.353 56.4146 40.3455 57.0488 40.3455C57.6827 40.3455 58.304 40.353 58.913 40.3675L58.4798 44.0158C57.6884 50.6802 62.4494 56.7243 69.1138 57.5158C74.9076 58.2038 80.2326 54.6953 82.045 49.388C83.1447 50.2027 84.4914 50.7029 85.9522 50.7558L80.9399 71.105C80.6248 72.3839 79.8517 73.4987 78.6415 74.0185C75.77 75.2518 69.2088 77.2733 57.0492 77.2733C42.8924 77.2733 36.9769 75.0893 34.7833 73.8765C33.9853 73.4353 33.5327 72.624 33.3146 71.7386L28.1454 50.7558ZM57.0475 70.9139C59.2355 70.9139 61.0093 68.3055 61.0093 65.0878C61.0093 61.8701 59.2355 59.2616 57.0475 59.2616C54.8594 59.2616 53.0857 61.8701 53.0857 65.0878C53.0857 68.3055 54.8594 70.9139 57.0475 70.9139Z" fill="white"/>
<circle cx="86.4909" cy="42.9496" r="5.68609" fill="white"/>
<circle cx="27.5135" cy="42.9958" r="5.68609" fill="white"/>
<circle cx="57.0482" cy="31.805" r="6.48184" fill="white"/>
</svg>
