<svg width="114" height="114" viewBox="0 0 114 114" fill="none" xmlns="http://www.w3.org/2000/svg">
<rect x="2.96682" y="2.8057" width="108.066" height="108.066" rx="13.1654" fill="#3D490A" stroke="#fcd928" stroke-width="4.38848"/>
<path d="M5.16098 34.0738L8.05082 36.6024C9.00318 37.4357 9.54946 38.6396 9.54946 39.9051V73.773C9.54946 75.0385 9.00318 76.2424 8.05082 77.0757L5.16098 79.6043V34.0738Z" fill="#fcd928"/>
<path d="M108.839 79.6043L105.949 77.0757C104.997 76.2423 104.45 75.0385 104.45 73.773L104.45 39.905C104.45 38.6396 104.997 37.4357 105.949 36.6024L108.839 34.0738L108.839 79.6043Z" fill="#fcd928"/>
<path fill-rule="evenodd" clip-rule="evenodd" d="M91.8913 39.3736C91.8913 44.1299 82.2621 47.9857 70.3839 47.9857C58.5056 47.9857 48.8764 44.1299 48.8764 39.3736C48.8764 34.6172 58.5056 30.7615 70.3839 30.7615C82.2621 30.7615 91.8913 34.6172 91.8913 39.3736ZM92.3745 44.3214C92.3735 44.3195 92.3729 44.3153 92.3729 44.3086C92.3729 44.0909 92.1965 43.9145 91.9788 43.9145C91.8721 43.9145 91.7753 43.9569 91.7043 44.0257C89.2913 47.318 80.6608 49.7538 70.3842 49.7538C64.0429 49.7538 58.3286 48.8264 54.315 47.3426C56.3867 50.3257 57.687 54.0311 57.9263 58.038C61.4677 58.8807 65.7592 59.374 70.3842 59.374C82.5299 59.374 92.3764 55.9715 92.3764 51.774V44.3225C92.3757 44.3227 92.375 44.3223 92.3745 44.3214ZM56.4348 67.7045C57.3676 65.2121 57.8523 62.7111 57.9485 60.288C61.4774 61.0123 65.5986 61.4282 70.001 61.4282C80.5421 61.4282 89.9752 59.0434 93.2152 55.7499C93.3358 55.6563 93.4873 55.6006 93.6518 55.6006C94.0455 55.6006 94.3646 55.9198 94.3646 56.3135C94.3646 56.327 94.3661 56.3358 94.3689 56.3403L94.3684 61.0729L94.3693 61.16C94.3693 66.3749 85.4972 69.7721 72.8618 69.7721C66.5903 69.7721 60.5364 69.2072 56.4348 67.7045ZM50.6428 76.8784C52.4562 75.0056 54.0509 72.7826 55.3366 70.2183C55.4626 69.9669 55.5838 69.7151 55.7003 69.463C59.7003 71.123 65.6194 72.2027 73.2762 71.8818C80.8336 71.8818 87.5628 70.2698 91.8892 68.0369V72.5752H91.888C91.8887 72.6043 91.8891 72.6334 91.8891 72.6626C91.8891 78.7438 85.52 81.2747 70.3817 81.2747C58.7539 80.497 53.1381 79.0888 50.6428 76.8784ZM64.4268 37.0216L67.5777 41.4354L74.7535 41.5098L76.8535 37.0216L72.6801 38.1343L70.6065 35.1517L68.6901 38.0953L64.4268 37.0216ZM47.694 63.87C51.4064 53.4406 47.3622 43.4038 40.4949 40.9593C33.6275 38.5149 25.051 44.9879 21.3386 55.4172C17.6262 65.8465 20.1838 76.2828 27.0511 78.7273C33.9185 81.1717 43.9816 74.2993 47.694 63.87ZM28.0026 60.8013L30.625 53.4206L32.1099 57.8833L37.4201 53.4193L36.1599 60.71L40.7569 59.9766L35.0317 66.3642L28.0026 60.8013ZM31.8532 80.8721C40.1579 82.0826 49.2772 77.8182 53.9037 68.5905C59.0041 58.4176 55.2342 47.5271 47.8028 43.4877C46.9266 43.0484 46.0136 42.7306 45.0763 42.528C50.8323 47.5078 52.9658 57.7077 48.1849 67.2435C44.6204 74.3529 38.0932 79.3366 31.8532 80.8721Z" fill="white"/>
</svg>
