<svg width="114" height="113" viewBox="0 0 114 113" fill="none" xmlns="http://www.w3.org/2000/svg">
<rect x="2.96677" y="2.48368" width="108.066" height="108.066" rx="13.1654" fill="#3D490A" stroke="#fcd928" stroke-width="4.38848"/>
<path d="M5.16101 33.7516L8.05085 36.2802C9.00321 37.1135 9.54949 38.3174 9.54949 39.5829V73.4508C9.54949 74.7163 9.00321 75.9202 8.05085 76.7535L5.16101 79.2821V33.7516Z" fill="#fcd928"/>
<path d="M108.839 79.2822L105.949 76.7536C104.997 75.9203 104.45 74.7164 104.45 73.451L104.45 39.583C104.45 38.3175 104.997 37.1136 105.949 36.2803L108.839 33.7517L108.839 79.2822Z" fill="#fcd928"/>
<path d="M94.6327 32.7346L81.4883 38.341L83.0268 49.5536L98.2007 42.928L88.8752 43.9473L99.8996 36.4722L87.686 39.1904L94.6327 32.7346Z" fill="white"/>
<path d="M77.4507 24.1978L68.9559 24.1978L75.9725 78.7821L84.4674 75.05L77.4507 24.1978Z" fill="white"/>
<path d="M17.7753 67.1952L33.3306 47.4022L31.7914 57.0104C31.7914 57.0104 49.5267 49.506 50.8007 49.2113C52.0748 48.9166 54.0563 48.8156 55.5362 52.7816C57.0162 56.7476 55.8335 58.8551 55.2314 59.3962C54.6292 59.9373 36.0272 67.1952 36.0272 67.1952L40.0695 72.7696L17.7753 67.1952Z" fill="white"/>
<path fill-rule="evenodd" clip-rule="evenodd" d="M66.7065 24.4101L33.4089 34.2637L37.3852 53.1812C40.1628 52.0207 43.0591 50.8151 45.4798 49.8174L45.134 47.1017L40.3819 46.2592L43.1569 41.3857L43.1476 41.4045L42.5626 45.0944L46.5051 45.8888L47.0323 49.1794C49.373 48.2209 51.0096 47.5684 51.2035 47.5363C51.4417 47.4969 51.9119 47.4473 52.5034 47.5466L51.3759 42.5753L58.4662 39.2386L53.6951 33.8391L53.6699 33.8166L60.7056 39.8073L53.4143 43.2676L54.5003 48.4265C55.4027 49.1094 56.324 50.2681 57.0492 52.2116C58.2131 55.3305 58.0802 57.5443 57.6287 58.9411L61.0247 61.0785L59.0001 66.684L64.4644 67.014L64.49 67.0125L56.6409 68.5815L59.0001 62.0408L56.6163 60.6454C56.2558 60.8835 54.4217 61.671 51.9088 62.7046L53.0494 65.4151L49.0699 68.2169L52.571 70.9966L52.5888 71.0076L46.6031 68.3815L51.2443 65.1107L50.4192 63.3139C47.3571 64.5603 43.6349 66.0423 40.3606 67.337L44.6216 87.6087L73.8424 79.454L66.7065 24.4101Z" fill="white"/>
</svg>
