<svg width="114" height="114" viewBox="0 0 114 114" fill="none" xmlns="http://www.w3.org/2000/svg">
<rect x="2.96677" y="2.80573" width="108.066" height="108.066" rx="13.1654" fill="#3D4A0A" stroke="#C5F404" stroke-width="4.38848"/>
<path d="M5.16101 34.0739L8.05085 36.6025C9.00321 37.4358 9.54949 38.6397 9.54949 39.9052V73.7731C9.54949 75.0386 9.00321 76.2425 8.05085 77.0758L5.16101 79.6044V34.0739Z" fill="#C5F404"/>
<path d="M108.839 79.6044L105.949 77.0758C104.997 76.2425 104.45 75.0386 104.45 73.7731L104.45 39.9052C104.45 38.6397 104.997 37.4358 105.949 36.6025L108.839 34.0739L108.839 79.6044Z" fill="#C5F404"/>
<path fill-rule="evenodd" clip-rule="evenodd" d="M64.934 29.9482C64.934 33.6579 63.394 36.9056 61.0902 38.6946C66.7423 39.8341 71.0671 44.568 71.5921 50.4236C71.6446 51.0102 71.6446 51.7062 71.6446 53.098V67.4691H65.655L64.5027 92.8975C64.4761 93.4835 63.9933 93.9449 63.4067 93.9449H50.554C49.9674 93.9449 49.4846 93.4835 49.4581 92.8975L48.3057 67.4691H42.3161V53.0981C42.3161 51.7062 42.3161 51.0102 42.3687 50.4236C42.8937 44.5679 47.2185 39.8341 52.8706 38.6946C50.5669 36.9055 49.0269 33.6578 49.0269 29.9482C49.0269 24.3073 52.5878 19.7344 56.9805 19.7344C61.3731 19.7344 64.934 24.3073 64.934 29.9482Z" fill="white"/>
<path fill-rule="evenodd" clip-rule="evenodd" d="M46.4235 40.2138C45.2869 39.5073 44.0921 38.9025 42.8617 38.4165C43.6581 36.3443 43.6975 33.7469 42.9053 31.004C41.1543 24.9415 35.3981 19.0832 29.3145 19.0832C23.2308 19.0832 20.8587 24.9415 22.6097 31.004C23.402 33.7471 24.9419 36.3446 26.9354 38.4169C22.7009 40.5844 20.5375 45.1138 21.5879 50.4868C21.7167 51.1455 21.935 51.9013 22.2866 53.1184L22.2867 53.1185L22.323 53.2444L26.3107 67.0511L26.9196 69.1592H29.1138H33.0071L40.5391 91.5765C41.1066 93.2655 42.9392 94.5955 44.699 94.5955H48.0944L47.9989 92.4874H44.0902C43.5036 92.4874 42.8927 92.0441 42.7035 91.4811L34.4953 67.0511H30.6992H28.505L27.8961 64.9431L24.5173 53.2444L24.5173 53.2444L24.5172 53.2442C24.131 51.9072 23.9379 51.2386 23.8278 50.675C22.8929 45.8931 24.9283 41.8899 28.837 40.1243C29.5265 39.8128 30.2743 39.5709 31.0744 39.4067C30.2892 38.9247 29.5323 38.3326 28.8268 37.6513C27.0163 35.9032 25.5446 33.5685 24.8039 31.004C23.2387 25.5846 25.5307 21.1913 29.9233 21.1913C34.3159 21.1913 39.1458 25.5846 40.711 31.004C41.4517 33.5684 41.3287 35.903 40.5281 37.6511C40.2162 38.3324 39.8013 38.9246 39.2945 39.4066C40.1895 39.5707 41.077 39.8125 41.9465 40.124C42.918 40.472 43.867 40.9069 44.7785 41.4176C45.2935 40.9757 45.8433 40.5729 46.4235 40.2138ZM67.5567 40.2243C68.1356 40.5838 68.6842 40.9869 69.198 41.4291C70.1158 40.9134 71.0717 40.4746 72.0505 40.124C72.9199 39.8125 73.8075 39.5707 74.7025 39.4066C74.1957 38.9246 73.7808 38.3324 73.4688 37.6511C72.6683 35.903 72.5453 33.5684 73.286 31.004C74.8512 25.5846 79.681 21.1913 84.0737 21.1913C88.4663 21.1913 90.7583 25.5846 89.1931 31.004C88.4524 33.5685 86.9807 35.9032 85.1702 37.6513C84.4647 38.3326 83.7078 38.9247 82.9226 39.4067C83.7227 39.5709 84.4705 39.8128 85.16 40.1243C89.0687 41.8899 91.1041 45.8931 90.1692 50.675C90.0591 51.2385 89.866 51.907 89.4799 53.2439L89.4797 53.2444L86.1009 64.9431L85.492 67.0511H83.2978H79.5017L71.2935 91.4811C71.1043 92.0441 70.4934 92.4874 69.9068 92.4874H65.9675L65.8719 94.5955H69.298C71.0578 94.5955 72.8904 93.2655 73.4579 91.5765L80.9899 69.1592H84.8831H87.0774L87.6862 67.0511L91.674 53.2444L91.7103 53.1185L91.7105 53.118L91.7106 53.1177C92.062 51.901 92.2803 51.1454 92.4091 50.4868C93.4595 45.1138 91.2961 40.5844 87.0616 38.4169C89.0551 36.3446 90.595 33.7471 91.3873 31.004C93.1383 24.9415 90.7662 19.0832 84.6825 19.0832C78.5989 19.0832 72.8427 24.9415 71.0917 31.004C70.2995 33.7469 70.3389 36.3443 71.1353 38.4165C69.8988 38.9049 68.6982 39.5133 67.5567 40.2243Z" fill="white"/>
</svg>
