<svg width="114" height="114" viewBox="0 0 114 114" fill="none" xmlns="http://www.w3.org/2000/svg">
<rect x="2.96683" y="2.8057" width="108.066" height="108.066" rx="13.1654" fill="#3D490A" stroke="#C5F404" stroke-width="4.38848"/>
<path d="M5.1611 34.0738L8.05094 36.6024C9.00331 37.4357 9.54958 38.6396 9.54958 39.9051V73.773C9.54958 75.0385 9.0033 76.2424 8.05094 77.0757L5.1611 79.6043V34.0738Z" fill="#C5F404"/>
<path d="M108.839 79.6043L105.949 77.0757C104.997 76.2423 104.451 75.0385 104.451 73.773L104.451 39.905C104.451 38.6396 104.997 37.4357 105.949 36.6024L108.839 34.0738L108.839 79.6043Z" fill="#C5F404"/>
<path fill-rule="evenodd" clip-rule="evenodd" d="M32.4504 36.9479C32.2269 35.8973 32.7967 34.8394 33.7969 34.448L60.1614 24.1298C61.8109 23.4843 63.651 23.5307 65.2658 24.2587L87.7609 34.3998C88.7019 34.824 89.22 35.8467 89.0054 36.8564L83.3744 63.3492C83.2205 64.0734 82.7117 64.6712 82.0213 64.9389L61.1211 73.0423C60.602 73.2436 60.0258 73.24 59.5093 73.0323L39.3979 64.9459C38.7201 64.6734 38.2223 64.0813 38.0703 63.3667L32.4504 36.9479ZM62.4002 26.0428L86.1699 36.3496L80.9445 62.7715L60.8859 70.1956L62.4002 26.0428ZM55.9923 31.4956L39.8846 60.8387C39.5811 61.3915 39.7677 62.0852 40.3074 62.4112C40.862 62.7462 41.5832 62.5695 41.92 62.016L59.322 33.4214C59.8808 32.5033 59.5789 31.3055 58.6518 30.7619C57.7169 30.2136 56.5139 30.5455 55.9923 31.4956ZM36.1452 38.6885C36.6981 38.6885 37.1463 38.2403 37.1463 37.6874C37.1463 37.1345 36.6981 36.6863 36.1452 36.6863C35.5923 36.6863 35.1441 37.1345 35.1441 37.6874C35.1441 38.2403 35.5923 38.6885 36.1452 38.6885ZM56.9986 68.8989C57.5734 68.8989 58.0393 68.4329 58.0393 67.8581C58.0393 67.2834 57.5734 66.8174 56.9986 66.8174C56.4238 66.8174 55.9578 67.2834 55.9578 67.8581C55.9578 68.4329 56.4238 68.8989 56.9986 68.8989ZM65.2933 31.934C65.8461 31.934 66.2943 31.4858 66.2943 30.9329C66.2943 30.38 65.8461 29.9318 65.2933 29.9318C64.7404 29.9318 64.2922 30.38 64.2922 30.9329C64.2922 31.4858 64.7404 31.934 65.2933 31.934ZM82.6739 39.1362C83.0045 38.6285 82.8609 37.9488 82.3532 37.6182C81.8454 37.2876 81.1657 37.4312 80.8351 37.939L63.3727 64.7582C63.0421 65.266 63.1857 65.9456 63.6935 66.2763C64.2013 66.6069 64.8809 66.4633 65.2116 65.9555L82.6739 39.1362ZM20.2771 63.1158L36.1455 59.677L36.516 61.4186L27.4047 63.5825C26.8943 63.7038 26.8289 64.4036 27.3081 64.6172L58.9055 78.7097C59.1982 78.8403 59.5334 78.8363 59.823 78.6988L89.4909 64.6108C89.9553 64.3903 89.8884 63.7095 89.39 63.5835L84.7168 62.4018L85.0222 60.965L93.7543 63.1162C94.6974 63.3485 94.8957 64.6015 94.0703 65.1137L62.6259 84.6262C60.6119 85.8759 58.0816 85.9465 56.0011 84.8108L19.9838 65.151C19.0918 64.6641 19.284 63.331 20.2771 63.1158ZM41.3451 90.0028L39.5053 89.3608L41.9251 82.426L43.7649 83.068L41.3451 90.0028ZM33.1836 85.1961L34.7526 86.3517L39.1082 80.4376L37.5392 79.2821L33.1836 85.1961ZM28.1004 80.9924L27.0742 79.3358L33.318 75.4679L34.3442 77.1244L28.1004 80.9924ZM80.1052 61.1205C80.1052 61.6223 79.6984 62.0291 79.1965 62.0291C78.6947 62.0291 78.2878 61.6223 78.2878 61.1205C78.2878 60.6186 78.6947 60.2118 79.1965 60.2118C79.6984 60.2118 80.1052 60.6186 80.1052 61.1205Z" fill="white"/>
</svg>
