<svg width="136" height="136" viewBox="0 0 136 136" fill="none" xmlns="http://www.w3.org/2000/svg">
<path fill-rule="evenodd" clip-rule="evenodd" d="M71.2817 4.30169C74.8109 0.330493 78.3401 2.09577 82.3113 5.62497C82.3113 5.62497 88.929 11.8021 88.929 12.2427C90.2523 14.4487 89.371 15.3313 90.6943 15.3313C92.0176 15.3313 91.1349 12.6847 90.2523 11.3601C89.371 10.0368 84.5172 4.74233 83.6345 3.86105C77.9008 -1.43343 73.0456 -0.992787 69.9584 3.41905C69.5177 3.86105 70.8424 4.74369 71.283 4.30305L71.2817 4.30169Z" fill="white"/>
<path fill-rule="evenodd" clip-rule="evenodd" d="M72.1643 21.5098C75.6935 28.1275 83.1939 29.0102 87.1651 24.1563C87.6057 23.7157 86.7231 22.3924 86.2811 23.2737C82.3113 26.3622 76.1355 24.1577 73.0456 20.6271C73.0456 20.1851 71.7223 21.0678 72.1643 21.5098Z" fill="white"/>
<path fill-rule="evenodd" clip-rule="evenodd" d="M91.135 31.6567C88.0478 31.6567 82.7533 29.4508 81.4286 25.9216C80.988 25.0376 80.1054 25.4796 80.1054 26.3623C80.988 30.7741 85.3998 34.3047 91.135 32.98C92.019 32.98 92.019 31.6567 91.135 31.6567Z" fill="white"/>
<path fill-rule="evenodd" clip-rule="evenodd" d="M89.371 29.4508C92.0176 30.774 94.6641 28.5668 94.6641 25.9202C94.6641 25.0376 93.7829 24.5969 93.3409 25.4796C92.9002 26.8028 90.2537 27.6855 89.3697 28.1261C88.929 28.1261 88.4884 29.4508 89.3697 29.4508H89.371Z" fill="white"/>
<path fill-rule="evenodd" clip-rule="evenodd" d="M92.4596 16.6559C92.0176 15.7719 90.6943 16.2139 91.1349 17.0966C91.5769 18.4199 91.1349 20.6258 90.6943 21.9504C89.8116 23.7143 89.371 23.7143 89.8116 24.1563C90.6943 25.4796 95.9888 21.5084 92.4596 16.6559Z" fill="white"/>
<path fill-rule="evenodd" clip-rule="evenodd" d="M71.2817 5.18434C70.3977 6.94826 69.9584 7.39026 73.0456 9.15554C72.6049 10.4788 71.2817 11.3601 72.1643 12.6847C72.6049 13.566 73.0456 14.4487 73.9282 14.008C74.3702 14.008 74.3702 13.5674 74.3702 13.1254C74.3702 12.6847 73.9282 11.8021 73.9282 11.8021C74.3702 10.9195 75.2529 9.59618 75.2529 8.7149C75.2529 7.8309 73.4876 7.39026 73.0456 6.94826C73.9296 5.62498 74.3702 5.18434 73.9296 4.3017C73.0456 2.97842 62.8986 2.53642 58.4868 6.94826C54.5156 10.9195 51.869 17.5372 51.869 22.3911C51.869 26.8029 52.7503 30.7741 53.6329 33.8627C53.6329 34.7439 54.9576 34.3033 54.9576 33.8627C53.6329 25.9203 52.3097 17.0966 60.2521 8.2729C62.458 5.62498 67.7525 5.18434 71.2817 5.18434Z" fill="white"/>
<path fill-rule="evenodd" clip-rule="evenodd" d="M54.9576 32.98C58.4868 28.5681 60.2507 24.5969 61.1334 20.1851C61.5754 19.7431 62.4566 19.3025 62.8986 18.8618C65.1046 17.0965 62.4566 17.9778 67.3105 20.6257C69.0744 21.5097 73.9282 22.391 73.4876 20.6257C73.4876 20.1851 73.0456 20.1851 72.6036 20.1851C70.8397 20.6257 69.5164 19.7431 68.1931 18.8618C64.6626 17.0965 65.1046 15.3313 63.7813 14.8906C62.8973 14.8906 62.8973 15.3313 61.1334 16.6559C59.3681 17.9792 58.9274 17.5385 58.4868 18.4198C56.2809 29.0088 52.3097 31.2147 53.633 32.0973C54.075 33.4206 54.5156 33.4206 54.9562 32.98H54.9576Z" fill="white"/>
<path fill-rule="evenodd" clip-rule="evenodd" d="M66.2157 38.2663C58.344 36.4779 57.6286 43.6342 62.9966 45.4226C66.5734 46.497 70.1515 42.5598 69.0785 40.4137C69.0785 40.056 68.7208 39.3393 66.2157 38.2663Z" fill="white"/>
<path fill-rule="evenodd" clip-rule="evenodd" d="M66.2157 37.5509C57.271 34.6895 55.4826 44.3509 62.6389 46.497C67.6478 47.9277 73.372 41.1291 67.6478 38.2677C66.9324 37.9086 66.2157 38.983 66.9324 39.3407C68.3632 40.4151 68.7208 41.1291 67.6478 42.5612C64.4273 47.5701 58.3454 41.8458 61.2068 39.6984C62.2812 38.624 64.4273 38.624 65.858 38.983C66.9324 38.983 67.2901 37.9086 66.2171 37.5509H66.2157Z" fill="white"/>
<path fill-rule="evenodd" clip-rule="evenodd" d="M74.8109 41.3617C72.605 39.1558 70.3991 39.5978 68.6338 40.9211C67.7512 41.3617 68.6338 42.6863 69.0758 42.2443C69.9571 42.2443 73.4876 42.6863 73.9283 42.6863C74.8109 43.127 75.2516 41.8023 74.8109 41.3617Z" fill="white"/>
<path fill-rule="evenodd" clip-rule="evenodd" d="M81.6014 40.4124C73.3734 38.9817 73.0144 45.7804 78.0246 47.2124C81.6014 48.2841 86.2526 44.3483 82.6758 41.1292L81.6014 40.4124Z" fill="white"/>
<path fill-rule="evenodd" clip-rule="evenodd" d="M81.9591 39.6984C72.6567 37.551 71.5823 46.4957 78.0232 48.2854C82.6744 49.3598 88.0424 44.3496 83.3912 40.7714C82.6758 40.0561 81.9591 41.1291 82.6758 41.8458C85.1796 44.3482 81.2437 47.2124 78.7399 46.138C74.8041 45.065 75.1618 40.4124 81.9591 41.1291C82.3181 41.1291 82.6758 40.0547 81.9591 39.6984Z" fill="white"/>
<path fill-rule="evenodd" clip-rule="evenodd" d="M68.6338 45.3342C67.7511 47.0982 67.7511 47.0982 68.1931 49.7461C68.1931 50.6287 69.5164 50.6287 69.5164 49.7461C70.3991 47.0982 70.3991 47.5402 69.9571 45.3342C69.9571 44.8922 68.6338 44.8922 68.6338 45.3342Z" fill="white"/>
<path fill-rule="evenodd" clip-rule="evenodd" d="M65.5452 49.3041C64.6625 51.51 67.7511 56.3625 71.2817 54.5985C73.0456 53.7159 74.8109 51.5113 74.3689 49.7447C74.3689 48.8634 73.0456 48.8634 73.0456 49.7447C73.0456 50.6287 71.7223 51.9506 70.399 52.3926C69.5164 52.8333 69.0757 52.3926 68.6337 51.9506C67.7511 51.51 66.4278 50.1867 66.8698 49.3041C66.8698 48.8634 65.5452 48.4214 65.5452 49.3041Z" fill="white"/>
<path fill-rule="evenodd" clip-rule="evenodd" d="M65.5452 57.2451C69.957 57.6871 65.9872 57.6871 74.3702 57.6871C75.2515 57.6871 75.2515 56.3625 74.3702 56.3625C70.399 55.4812 69.0757 55.0392 65.5452 55.9218C64.2219 55.9218 64.6639 57.2451 65.5452 57.2451Z" fill="white"/>
<path fill-rule="evenodd" clip-rule="evenodd" d="M66.9011 52.5109C63.6806 52.9842 63.3229 53.4575 61.1755 54.1674C61.1755 54.1674 62.6076 54.404 62.9653 54.404C65.8281 54.6407 67.6165 53.9308 68.6909 53.9308H69.0472C68.3318 53.2208 66.9011 52.9842 66.9011 52.5109Z" fill="white"/>
<path d="M68.6895 54.6393C59.3871 57.479 58.3127 53.4561 60.8178 52.9829L67.6178 52.2743C68.6895 52.7476 69.7639 52.7476 69.7639 53.6928C70.1216 54.4027 69.0486 54.6393 68.6895 54.6393Z" fill="white"/>
<path fill-rule="evenodd" clip-rule="evenodd" d="M70.8683 54.0097C73.372 54.725 75.8771 55.4404 78.3823 54.3674C70.8683 53.293 74.8041 51.8636 70.8683 54.0097Z" fill="white"/>
<path fill-rule="evenodd" clip-rule="evenodd" d="M71.9413 52.5776C71.5836 52.9367 70.8669 52.9367 70.5105 53.2943C69.7938 53.652 69.7938 54.7251 70.5105 55.0827C73.372 56.1571 75.5194 56.8725 78.7385 55.7995C79.8129 55.4404 79.8129 53.652 78.3822 53.652C73.0143 52.9367 71.9413 51.1469 71.9413 52.5776Z" fill="white"/>
<path fill-rule="evenodd" clip-rule="evenodd" d="M52.7503 35.186C52.3097 43.1284 53.1923 50.1868 57.6042 56.8045C59.3681 59.4524 61.1334 62.9816 64.6626 63.8629C65.9872 64.3049 66.4279 63.4223 67.7511 63.4223C68.1931 63.4223 69.0758 63.8643 69.957 63.8643C74.8109 64.3049 81.4286 55.0406 83.6346 48.4215C84.0766 47.5402 82.7519 47.0982 82.3113 47.9808C80.546 53.2753 76.5762 57.2465 73.9282 59.4524C69.957 62.9816 69.0758 60.7757 67.3105 60.7757C64.2233 60.7757 64.6626 62.9816 59.3681 55.0406C55.3969 48.8635 53.633 41.8037 53.633 34.7453C54.075 34.7453 53.1923 34.3033 52.7503 35.186Z" fill="white"/>
<path fill-rule="evenodd" clip-rule="evenodd" d="M88.4884 32.0987C88.4884 32.5394 86.2825 39.5978 86.2825 40.0398C85.8405 41.805 84.9579 42.2457 85.8405 42.6877C86.7231 43.1283 88.4884 40.0398 88.9291 39.1571C90.2523 36.5106 90.2523 34.7453 89.8117 32.0987C89.8117 31.6567 88.4884 31.6567 88.4884 32.0987Z" fill="white"/>
<path fill-rule="evenodd" clip-rule="evenodd" d="M59.3695 35.1859C62.4567 35.1859 69.515 40.9224 69.957 39.5977C69.957 39.1571 69.9571 38.7165 69.5164 38.7165C67.7511 37.3918 65.1046 34.7453 62.016 33.8626C58.0448 32.98 58.4868 35.1859 59.3681 35.1859H59.3695Z" fill="white"/>
<path fill-rule="evenodd" clip-rule="evenodd" d="M74.8109 40.4804C84.5172 41.3644 84.0766 39.1571 85.3998 40.0397C86.7231 41.363 89.371 36.0685 74.8109 39.1571C73.9282 39.1571 73.9282 40.4804 74.8109 40.4804Z" fill="white"/>
<path fill-rule="evenodd" clip-rule="evenodd" d="M53.1923 52.8346C53.1923 52.394 54.9563 49.3054 54.9563 48.8634C55.3983 47.9808 54.075 47.5402 53.633 48.4228C52.7503 49.7461 50.5458 51.51 50.5458 53.2753C50.5458 54.1593 52.3097 55.0406 53.1923 55.4812C58.9275 59.893 60.2507 60.7757 60.6927 59.893V59.0118L56.7215 55.0406C54.075 52.394 54.9563 53.7173 53.1923 52.8346Z" fill="white"/>
<path fill-rule="evenodd" clip-rule="evenodd" d="M65.5452 63.4236C69.5164 66.9528 72.163 68.2761 76.1342 71.366C79.2227 73.5706 82.3113 76.2185 86.2825 77.1011C92.4583 78.4244 97.7527 71.8067 96.4295 66.0715C94.6642 58.5698 87.6058 55.4812 83.6346 49.7461C83.1939 48.8635 81.8693 49.7461 82.7519 50.6287C86.7231 55.9232 92.9003 60.3351 94.2235 66.9528C95.1062 71.3647 91.135 75.7765 86.7231 74.8952C83.6359 74.4532 80.546 71.8067 77.4575 70.04C74.3703 67.8355 70.0672 65.3167 66.9787 62.6688C66.0947 61.7875 64.6626 62.9816 65.5452 63.4236Z" fill="white"/>
<path fill-rule="evenodd" clip-rule="evenodd" d="M64.6639 82.3942C69.9584 88.1293 77.0168 98.2776 87.6071 103.13C91.135 104.453 96.4295 106.661 98.1947 103.572C98.6354 102.688 97.7541 102.247 97.3121 102.688C95.1062 106.219 83.6346 97.8356 78.7821 93.8658C75.2529 90.7772 70.399 85.9234 65.5466 81.0709C65.1046 81.0709 63.7813 81.9536 64.6626 82.3942H64.6639Z" fill="white"/>
<path fill-rule="evenodd" clip-rule="evenodd" d="M81.4286 88.128C85.3998 91.2179 88.487 92.5412 95.1062 93.8645C95.9888 93.8645 96.4294 92.9818 95.5468 92.5412C93.7829 91.6586 98.1947 93.8645 81.8706 86.8061C81.4286 86.3641 80.9866 87.6874 81.4286 88.1294V88.128Z" fill="white"/>
<path fill-rule="evenodd" clip-rule="evenodd" d="M88.9304 54.1579C93.3409 59.0104 96.4295 61.6583 98.1947 63.4223C98.6354 64.3063 99.9586 63.4223 99.0774 62.541C95.9888 57.2465 92.9002 55.4812 89.8117 52.8347C88.929 52.8347 88.0464 53.7159 88.929 54.1579H88.9304Z" fill="white"/>
<path fill-rule="evenodd" clip-rule="evenodd" d="M84.9592 48.8648C85.8405 49.3054 86.7231 49.7461 88.0464 50.1881C88.9304 50.1881 89.8117 49.7461 90.6943 49.7461C99.0774 49.3054 106.578 55.4825 103.489 71.3646C103.047 73.5719 104.372 74.8952 104.812 76.6591C103.93 77.5431 103.489 77.9837 103.93 78.4244C105.253 88.1307 101.724 89.896 102.166 91.2193C104.812 96.5137 103.93 101.808 104.812 107.543C105.253 111.955 107.018 117.692 107.46 122.985C107.901 131.81 103.93 132.25 105.253 133.133C105.695 133.575 106.137 133.133 106.137 133.133C112.313 126.515 107.459 115.045 107.018 107.103C106.578 101.366 107.46 96.0731 104.812 90.3366C107.018 86.8074 107.018 82.3942 106.578 77.9837L107.459 76.6591C108.343 75.7765 106.578 74.0125 106.136 72.2473C105.695 70.924 108.342 62.5409 104.812 55.4812C102.166 49.7461 95.9888 46.2169 88.4884 47.9821C87.6058 47.9821 86.7231 47.0981 85.3998 47.0981C84.5172 47.5401 84.0766 48.8634 84.9579 48.8634L84.9592 48.8648Z" fill="white"/>
<path fill-rule="evenodd" clip-rule="evenodd" d="M107.459 80.187C118.489 99.159 109.224 104.453 115.842 122.102C115.842 122.543 116.284 122.543 116.725 122.543C117.607 122.101 116.725 121.659 115.842 117.248C113.196 102.688 120.696 98.717 108.784 79.7463C107.9 78.8623 107.018 79.3043 107.459 80.187Z" fill="white"/>
<path fill-rule="evenodd" clip-rule="evenodd" d="M107.364 129.507C107.721 128.075 108.081 126.645 108.081 125.212C110.942 124.497 113.805 123.782 116.668 122.709C117.025 123.783 117.383 124.855 117.383 125.929C111.657 128.791 108.081 129.15 107.364 129.506V129.507Z" fill="white"/>
<path fill-rule="evenodd" clip-rule="evenodd" d="M108.079 129.864C111.3 129.506 115.236 128.433 118.098 127.002C119.173 126.645 118.814 125.212 118.456 124.139C117.741 120.561 117.025 121.634 113.805 122.709C104.86 125.57 108.079 123.066 107.006 129.506C106.649 129.864 107.364 130.58 108.081 129.864H108.079ZM108.438 128.433C110.942 127.718 113.805 126.643 115.952 125.212C115.952 124.855 115.595 124.497 115.595 124.138C107.364 127.36 109.511 124.138 108.438 128.433Z" fill="white"/>
<path fill-rule="evenodd" clip-rule="evenodd" d="M119.371 126.956C118.048 126.515 118.048 125.192 117.607 125.633C116.284 126.073 118.048 128.721 119.371 128.721C123.343 129.604 122.46 120.338 118.931 119.898C117.607 119.898 115.843 121.221 116.725 121.661C117.165 122.545 117.607 121.221 118.49 121.661C118.49 121.661 119.813 126.073 119.371 126.956Z" fill="white"/>
<path fill-rule="evenodd" clip-rule="evenodd" d="M124.225 133.574C122.902 131.808 122.461 130.043 118.49 126.073C118.048 125.189 116.725 126.073 117.607 126.956C119.373 129.603 119.813 132.25 123.342 134.456C124.226 134.897 125.108 134.014 124.227 133.572L124.225 133.574Z" fill="white"/>
<path fill-rule="evenodd" clip-rule="evenodd" d="M28.9272 44.8922C28.0432 50.1867 30.6912 54.1579 30.2492 59.4511C28.9259 70.9227 22.3068 83.2769 26.72 94.7471C31.1318 107.101 44.3673 115.042 52.3097 102.248C56.2809 96.0718 56.7216 85.9234 54.9563 78.8637C52.7504 70.04 47.0139 61.6583 45.25 52.8333C44.3687 47.5388 46.5746 42.2443 47.0152 36.5092C47.0152 35.6266 45.692 35.6266 45.692 36.5092C45.692 41.8037 43.044 47.5388 43.9267 52.8333C46.1326 66.9514 57.6042 76.6591 52.7504 95.6298C51.8677 99.601 49.6632 102.688 47.4559 104.453C40.8381 110.19 32.0144 101.807 28.9259 93.8658C24.9547 83.2769 30.6912 70.482 32.0131 59.4511C32.4551 54.1579 29.8085 49.7447 30.2492 44.8922C30.2492 44.0096 28.9259 44.0096 28.9259 44.8922H28.9272Z" fill="white"/>
<path fill-rule="evenodd" clip-rule="evenodd" d="M39.7337 28.2744C39.7337 28.7164 39.1734 30.0397 39.1734 30.4817C35.6429 31.8049 32.9963 34.4529 33.8789 37.9821C34.3196 38.8647 35.2022 38.4227 35.2022 37.5401C34.3196 34.8935 36.9675 32.6876 40.0547 31.8049C40.4967 31.8049 40.9387 31.3643 40.9387 30.4817C40.9387 29.1584 41.3793 29.599 41.82 28.2757C42.7026 26.9511 41.3793 24.7465 40.9373 22.9813C40.4967 20.3333 42.7026 19.0101 43.5853 19.8927C44.0259 20.3333 43.5853 25.1872 43.5853 26.5105C44.0259 28.7164 45.3492 31.3643 45.7912 33.5689C46.6738 36.2168 45.7912 37.0994 46.6738 37.0994C47.9971 37.0994 47.1145 34.4529 47.1145 33.1282C46.2318 28.2757 44.9085 28.2757 45.3492 23.4219C45.3492 21.658 45.7912 19.4507 44.4679 18.1274C41.82 15.4809 39.542 17.7901 38.6607 20.8787C38.6607 26.5105 40.9373 25.6727 39.7351 28.2757L39.7337 28.2744Z" fill="white"/>
<path fill-rule="evenodd" clip-rule="evenodd" d="M31.1318 34.7439C31.5738 33.8627 33.7797 32.98 35.103 32.538C37.3089 32.0974 37.7495 32.538 37.7495 31.6567C38.1915 30.7727 35.103 30.3321 34.2203 30.3321C31.1331 30.7741 29.3665 34.3033 30.2491 34.7439C30.6911 35.1859 31.1331 35.1859 31.1331 34.7439H31.1318Z" fill="white"/>
<path fill-rule="evenodd" clip-rule="evenodd" d="M28.0432 26.3609C29.3665 25.9202 35.9856 25.9202 39.0728 26.3609C39.9568 26.3609 40.3974 25.4796 39.5148 25.0376C33.7783 22.8317 31.1318 23.2737 27.6012 25.0376C27.1606 25.4796 27.6012 26.8029 28.0432 26.3609Z" fill="white"/>
<path fill-rule="evenodd" clip-rule="evenodd" d="M42.6034 18.4198C44.3687 9.1555 33.3377 9.59614 35.103 25.0376C35.103 25.4796 35.545 25.4796 35.9856 25.4796C37.3089 25.4796 36.0917 17.9479 40.0629 14.8593C41.4093 14.8593 41.2801 16.6097 41.2801 17.9792C41.2801 18.8618 42.6034 19.3025 42.6034 18.4198Z" fill="white"/>
<path fill-rule="evenodd" clip-rule="evenodd" d="M31.1318 24.597C30.2505 17.5386 33.7797 10.0368 34.6623 10.4788C35.9856 11.3615 35.103 15.3313 35.103 21.0678C35.103 21.9504 36.4263 21.9504 36.4263 21.0678C36.8683 15.3313 38.6322 10.9195 35.9856 8.71354C31.5738 5.18434 28.0432 16.2139 29.8085 24.597C29.8085 25.4796 31.1318 25.4796 31.1318 24.597Z" fill="white"/>
<path fill-rule="evenodd" clip-rule="evenodd" d="M30.2491 44.8909C25.3966 29.8901 18.3368 26.8029 15.2483 22.3897C14.367 21.0664 13.4844 18.4185 15.6903 19.7431C16.1309 20.1838 19.2195 24.155 24.9546 26.8015H26.2792C27.1605 25.9203 25.8372 25.0376 25.3952 19.3011C24.514 11.8007 26.7199 6.94825 27.6025 12.2427C27.6025 12.6834 28.4852 26.3609 30.6897 25.4783C31.5737 25.0376 31.1725 24.2951 30.2912 21.2065C29.4072 17.2353 29.8302 14.0733 29.3896 11.8674C28.9476 9.66009 27.1605 7.8309 24.956 8.71218C21.4254 10.0368 22.308 19.7418 23.1907 24.155C17.8962 20.6258 17.4556 17.5372 13.925 17.5372C10.8378 17.5372 10.8378 21.5084 12.6017 24.155C15.2483 28.1262 23.6313 32.9787 28.0432 45.7735C29.3678 46.2155 30.2491 45.7735 30.2491 44.8909Z" fill="white"/>
<path fill-rule="evenodd" clip-rule="evenodd" d="M45.9884 56.9255C49.077 53.3963 50.1038 51.952 53.633 51.5114C54.5156 51.5114 54.5156 50.1867 53.633 50.1867C48.3385 49.7461 46.8711 52.0717 45.1058 56.4835C44.6652 56.9255 45.5478 57.3675 45.9898 56.9255H45.9884Z" fill="white"/>
<path fill-rule="evenodd" clip-rule="evenodd" d="M43.928 107.542C47.0152 114.6 51.4271 127.397 52.3097 135.338C52.3097 136.22 53.633 136.22 53.633 135.338C52.3097 121.221 50.1038 116.366 44.8093 107.101C44.3687 106.219 43.486 106.659 43.9267 107.542H43.928Z" fill="white"/>
<path fill-rule="evenodd" clip-rule="evenodd" d="M25.8373 102.689C24.956 103.131 24.0734 104.895 24.514 106.22C25.398 109.307 30.2505 106.661 29.3678 103.572C28.4838 101.366 25.8373 101.808 25.8373 102.689ZM26.7213 103.573C25.8373 105.337 26.7213 105.778 26.2793 105.337C27.6026 104.895 27.6026 104.014 26.7199 103.572L26.7213 103.573Z" fill="white"/>
<path fill-rule="evenodd" clip-rule="evenodd" d="M33.3377 116.809C32.897 116.367 32.455 116.809 32.0144 117.692C30.2491 119.898 32.0144 121.663 34.2203 120.779C36.8669 119.456 36.4262 116.808 33.3377 116.808V116.809ZM33.3377 118.573C33.7797 119.015 33.3377 119.015 33.3377 118.573ZM33.7783 118.132C34.2203 118.573 33.7783 118.573 33.7783 118.132ZM33.3377 118.573C33.3377 118.132 33.3377 118.132 33.3377 118.573ZM33.3377 118.132C33.7797 118.132 33.7797 118.132 33.3377 118.132Z" fill="white"/>
<path fill-rule="evenodd" clip-rule="evenodd" d="M56.7215 99.6023C53.1923 103.132 57.6041 106.22 60.2507 104.014C62.4566 101.808 59.8101 98.2777 57.6041 98.7197C57.1621 98.7197 56.7215 99.1603 56.7215 99.6023ZM58.0448 100.043C57.6041 100.485 57.1635 101.366 57.6041 101.808H58.0448C59.3694 102.249 59.3694 100.485 58.0448 100.043Z" fill="white"/>
<path fill-rule="evenodd" clip-rule="evenodd" d="M40.8381 80.1883C37.3089 82.3942 39.0741 86.8061 41.7221 86.8061C46.5745 86.3641 44.8093 80.6289 41.7221 79.3057C40.8381 78.423 40.3974 79.7463 40.8381 80.1883ZM42.1627 81.0696C40.8381 82.3942 41.2787 84.1581 41.7207 84.1581C42.6047 84.1581 43.0453 84.1581 42.6047 82.8349C42.6047 82.3942 42.1627 81.5116 42.1627 81.0696Z" fill="white"/>
<path fill-rule="evenodd" clip-rule="evenodd" d="M38.1915 41.363C37.3089 42.2457 36.8682 42.2457 37.3089 44.4502C36.8682 45.3342 38.1915 45.7749 38.6322 44.8922C39.5162 43.569 39.9568 43.569 39.5161 41.805C39.9554 40.921 38.6322 40.4804 38.1915 41.363Z" fill="white"/>
<path fill-rule="evenodd" clip-rule="evenodd" d="M40.3974 55.4798C39.9568 56.8045 39.9568 56.8045 41.2801 58.1278C41.7207 59.0104 42.6033 58.5684 42.6033 57.6858C42.6033 56.3625 43.0453 55.9218 41.7207 55.0392C41.2801 54.5972 39.9568 54.5972 40.3974 55.4798Z" fill="white"/>
<path fill-rule="evenodd" clip-rule="evenodd" d="M35.5436 69.1573C34.2203 70.0413 34.661 70.482 34.661 71.8053C34.2203 72.6865 35.545 73.1285 35.9856 72.2459C37.3089 70.9226 36.8669 70.482 36.8669 69.5993C37.3089 68.7153 35.9856 68.2747 35.5436 69.1573Z" fill="white"/>
<path fill-rule="evenodd" clip-rule="evenodd" d="M46.1326 74.0112C46.1326 76.2171 46.1326 75.7751 47.8978 77.9824C48.3385 78.8636 49.2211 78.423 49.2211 77.5404C49.2211 75.3344 49.2211 74.8938 47.4558 73.5692C46.5746 72.6879 45.6919 73.1285 46.1326 74.0112Z" fill="white"/>
<path fill-rule="evenodd" clip-rule="evenodd" d="M33.3377 90.3353C32.4564 91.6586 32.0144 91.6586 32.4564 94.7471C32.4564 95.6298 33.7797 95.6298 33.7797 95.1878C34.6624 93.4239 35.103 93.4239 34.6624 90.7759C34.6624 89.4527 33.3377 89.4527 33.3377 90.3353Z" fill="white"/>
<path fill-rule="evenodd" clip-rule="evenodd" d="M51.4271 110.632C51.8691 112.838 51.8691 112.838 53.633 114.161C54.075 115.044 55.3983 114.161 54.9576 113.72C54.5156 111.073 54.0736 111.073 52.7517 110.19C51.8677 109.309 50.9864 110.19 51.4271 110.632Z" fill="white"/>
<path fill-rule="evenodd" clip-rule="evenodd" d="M84.0752 44.4516C84.5172 45.3342 84.5172 45.3342 86.2825 44.8936C87.1638 44.8936 87.6058 44.0096 86.7231 43.569C85.8405 42.6863 85.8405 42.6863 84.5172 43.1283C83.6346 43.1283 83.1939 44.011 84.0752 44.4516Z" fill="white"/>
<path fill-rule="evenodd" clip-rule="evenodd" d="M59.3694 39.5977C57.6042 38.7137 58.0448 39.1557 58.0448 37.8325C58.0448 36.0672 57.6042 33.8613 56.2809 31.6553C55.8389 30.7741 54.9562 31.2147 54.9562 32.0973C55.3982 35.1845 55.3982 40.479 56.7215 40.921C59.3694 41.3617 59.8101 41.3617 59.8101 40.4804C59.8101 40.0384 59.8101 39.5964 59.3681 39.5964L59.3694 39.5977Z" fill="white"/>
<path fill-rule="evenodd" clip-rule="evenodd" d="M53.1923 28.5682C50.5444 27.6842 47.4558 32.98 50.1037 39.1558C51.427 41.8037 53.6329 43.127 54.0749 42.2443C54.0749 41.8037 54.0749 41.3617 53.6329 41.3617C50.5457 40.0384 50.5457 29.8915 52.7503 29.8915C53.6343 30.3321 54.0749 29.0088 53.1923 28.5682Z" fill="white"/>
</svg>
