<svg width="53" height="71" viewBox="0 0 53 71" fill="none" xmlns="http://www.w3.org/2000/svg">
<g clip-path="url(#clip0_33_5192)">
<path d="M8.88823 27.6883V36.1884L20.7139 43.6535V70.2844L13.842 63.7148V49.7087L10.3506 46.1905V60.3807L5.92232 56.1545V44.6251L0 40.4274V16.8606L2.6019 15.6985C7.02385 13.7235 9.87264 9.31939 9.87264 4.46442V4.45806L20.7107 0V29.2759L8.88506 27.6883H8.88823Z" fill="#fcd928"/>
<path d="M52.3418 16.8606V40.4306L46.4068 44.6251V56.1545L41.9785 60.3807V46.1905L38.503 49.7087V63.7148L31.6311 70.2844V43.6535L43.4409 36.1884V27.6883L31.6311 29.2759V0L42.4565 4.45806C42.4565 9.31621 45.3085 13.7203 49.7336 15.6953L52.3418 16.8606Z" fill="#fcd928"/>
<path d="M31.6311 0V29.2759L26.1709 29.9999L20.7107 29.2759V0H31.6311Z" fill="url(#paint0_linear_33_5192)"/>
<path style="mix-blend-mode:darken" d="M47.6954 36.7091L52.342 40.4273L46.4039 44.625V56.1544L41.9756 60.3807V46.1904L38.5033 49.7055V63.7115L31.6282 70.2843V43.6502L43.438 36.1852V27.6882L37.0345 28.5487C37.139 25.0718 37.3606 18.3053 37.6549 14.9999C38.0633 10.4402 42.4536 4.45801 42.4536 4.45801C42.4536 6.88708 43.1658 9.20184 44.4319 11.1578C45.698 13.1138 47.5181 14.7077 49.7307 15.6953L52.342 16.8574L47.6954 24.0525V36.7091Z" fill="url(#paint1_linear_33_5192)"/>
<path style="mix-blend-mode:darken" d="M52.3418 16.8574V40.4274L47.6951 36.7091V24.0526L52.3418 16.8574Z" fill="url(#paint2_linear_33_5192)"/>
<path style="mix-blend-mode:darken" d="M4.64669 36.7123L0 40.4305L5.93815 44.6282V56.1576L10.3664 60.3838V46.1936L13.8388 49.7086V63.7147L20.7139 70.2875V43.6534L8.90405 36.1884V27.6914L15.3075 28.5519C15.203 25.075 14.9815 18.3085 14.6871 15.003C14.2788 10.4434 9.88847 4.46118 9.88847 4.46118C9.88847 6.89025 9.17627 9.20502 7.91014 11.161C6.64401 13.1169 4.82395 14.7109 2.61139 15.6984L0 16.8606L4.64669 24.0557V36.7123Z" fill="url(#paint3_linear_33_5192)"/>
<path style="mix-blend-mode:darken" d="M0 16.8606V40.4305L4.64669 36.7123V24.0557L0 16.8606Z" fill="url(#paint4_linear_33_5192)"/>
</g>
<defs>
<linearGradient id="paint0_linear_33_5192" x1="26.1709" y1="-12.1454" x2="26.1709" y2="30.0284" gradientUnits="userSpaceOnUse">
<stop stop-color="#fcd928"/>
<stop offset="0.71" stop-color="#fcd928"/>
<stop offset="1" stop-color="#fcd928"/>
</linearGradient>
<linearGradient id="paint1_linear_33_5192" x1="41.1273" y1="-2.76571" x2="42.1529" y2="52.1439" gradientUnits="userSpaceOnUse">
<stop stop-color="#606060"/>
<stop offset="1" stop-color="white" stop-opacity="0"/>
</linearGradient>
<linearGradient id="paint2_linear_33_5192" x1="46.1377" y1="15.2634" x2="55.7541" y2="43.6161" gradientUnits="userSpaceOnUse">
<stop stop-color="#606060"/>
<stop offset="1" stop-color="white" stop-opacity="0"/>
</linearGradient>
<linearGradient id="paint3_linear_33_5192" x1="11.2147" y1="-2.76571" x2="10.1923" y2="52.1439" gradientUnits="userSpaceOnUse">
<stop stop-color="#606060"/>
<stop offset="1" stop-color="white" stop-opacity="0"/>
</linearGradient>
<linearGradient id="paint4_linear_33_5192" x1="6.2072" y1="15.2634" x2="-3.41235" y2="43.6193" gradientUnits="userSpaceOnUse">
<stop stop-color="#606060"/>
<stop offset="1" stop-color="white" stop-opacity="0"/>
</linearGradient>
<clipPath id="clip0_33_5192">
<rect width="52.3418" height="70.2875" fill="white"/>
</clipPath>
</defs>
</svg>
