<svg width="135" height="75" viewBox="0 0 135 75" fill="none" xmlns="http://www.w3.org/2000/svg">
<g clip-path="url(#clip0_10_3962)">
<rect width="4.02985" height="4.02985" transform="translate(4.02985 -6.10352e-05)" fill="#c9fa00"/>
<rect width="4.02985" height="4.02985" fill="#c9fa00"/>
<rect width="4.02985" height="4.02985" transform="translate(8.0597 -6.10352e-05)" fill="#c9fa00"/>
<rect width="4.02985" height="4.02985" transform="translate(12.0896 -6.10352e-05)" fill="#c9fa00"/>
<rect width="4.02985" height="4.02985" transform="translate(16.1194 -6.10352e-05)" fill="#c9fa00"/>
<rect width="4.02985" height="4.02985" transform="translate(0 4.02979)" fill="#c9fa00"/>
<rect width="4.02985" height="4.02985" transform="translate(4.02985 4.02979)" fill="#c9fa00"/>
<rect width="4.02985" height="4.02985" transform="translate(8.0597 4.02979)" fill="#c9fa00"/>
<rect width="4.02985" height="4.02985" transform="translate(12.0896 4.02979)" fill="#c9fa00"/>
<rect width="4.02985" height="4.02985" transform="translate(12.0896 8.05963)" fill="#7DAA0D"/>
<rect width="4.02985" height="4.02985" transform="translate(20.1493 4.02979)" fill="#c9fa00"/>
<rect width="4.02985" height="4.02985" transform="translate(16.1194 4.02979)" fill="#c9fa00"/>
<rect width="4.02985" height="4.02985" transform="translate(24.1791 4.02979)" fill="#c9fa00"/>
<rect width="4.02985" height="4.02985" transform="translate(20.1493 -6.10352e-05)" fill="#c9fa00"/>
<rect width="4.02985" height="4.02985" transform="translate(0 8.05963)" fill="#c9fa00"/>
<rect width="4.02985" height="4.02985" transform="translate(4.02985 8.05963)" fill="#c9fa00"/>
<rect width="4.02985" height="4.02985" transform="translate(8.0597 8.05963)" fill="#c9fa00"/>
<rect width="4.02985" height="4.02985" transform="translate(16.1194 8.05963)" fill="#c9fa00"/>
<rect width="4.02985" height="4.02985" transform="translate(20.1493 8.05963)" fill="#c9fa00"/>
<rect width="4.02985" height="4.02985" transform="translate(24.1791 8.05963)" fill="#c9fa00"/>
<rect width="4.02985" height="4.02985" transform="translate(0 12.0895)" fill="#c9fa00"/>
<rect width="4.02985" height="4.02985" transform="translate(4.02985 12.0895)" fill="#c9fa00"/>
<rect width="4.02985" height="4.02985" transform="translate(8.0597 12.0895)" fill="#c9fa00"/>
<rect width="4.02985" height="4.02985" transform="translate(16.1194 12.0895)" fill="#c9fa00"/>
<rect width="4.02985" height="4.02985" transform="translate(20.1493 12.0895)" fill="#c9fa00"/>
<rect width="4.02985" height="4.02985" transform="translate(24.1791 12.0895)" fill="#c9fa00"/>
<rect width="4.02985" height="4.02985" transform="translate(0 16.1193)" fill="#c9fa00"/>
<rect width="4.02985" height="4.02985" transform="translate(4.02985 16.1193)" fill="#c9fa00"/>
<rect width="4.02985" height="4.02985" transform="translate(8.0597 16.1193)" fill="#c9fa00"/>
<rect width="4.02985" height="4.02985" transform="translate(16.1194 16.1193)" fill="#c9fa00"/>
<rect width="4.02985" height="4.02985" transform="translate(20.1493 16.1193)" fill="#c9fa00"/>
<rect width="4.02985" height="4.02985" transform="translate(24.1791 16.1193)" fill="#c9fa00"/>
<rect width="4.02985" height="4.02985" transform="translate(0 20.1492)" fill="#c9fa00"/>
<rect width="4.02985" height="4.02985" transform="translate(0 24.179)" fill="#c9fa00"/>
<rect width="4.02985" height="4.02985" transform="translate(4.02985 20.1492)" fill="#c9fa00"/>
<rect width="4.02985" height="4.02985" transform="translate(8.0597 20.1492)" fill="#c9fa00"/>
<rect width="4.02985" height="4.02985" transform="translate(12.0896 20.1492)" fill="#c9fa00"/>
<rect width="4.02985" height="4.02985" transform="translate(12.0896 16.1193)" fill="#c9fa00"/>
<rect width="4.02985" height="4.02985" transform="translate(16.1194 20.1492)" fill="#c9fa00"/>
<rect width="4.02985" height="4.02985" transform="translate(20.1493 20.1492)" fill="#c9fa00"/>
<rect width="4.02985" height="4.02985" transform="translate(24.1791 20.1492)" fill="#7DAA0D"/>
<rect width="4.02985" height="4.02985" transform="translate(0 28.2089)" fill="#7DAA0D"/>
<rect width="4.02985" height="4.02985" transform="translate(4.02985 24.179)" fill="#c9fa00"/>
<rect width="4.02985" height="4.02985" transform="translate(8.0597 24.179)" fill="#c9fa00"/>
<rect width="4.02985" height="4.02985" transform="translate(12.0896 24.179)" fill="#7DAA0D"/>
<rect width="4.02985" height="4.02985" transform="translate(16.1194 24.179)" fill="#7DAA0D"/>
<rect width="4.02985" height="4.02985" transform="translate(20.1493 24.179)" fill="#7DAA0D"/>
<rect width="4.02985" height="4.02985" transform="translate(4.02985 28.2089)" fill="#7DAA0D"/>
<rect width="4.02985" height="4.02985" transform="translate(8.0597 28.2089)" fill="#7DAA0D"/>
</g>
<g clip-path="url(#clip1_10_3962)">
<rect width="4.02985" height="4.02985" transform="translate(38.2836 -6.10352e-05)" fill="#c9fa00"/>
<rect width="4.02985" height="4.02985" transform="translate(34.2537 -6.10352e-05)" fill="#c9fa00"/>
<rect width="4.02985" height="4.02985" transform="translate(42.3134 -6.10352e-05)" fill="#c9fa00"/>
<rect width="4.02985" height="4.02985" transform="translate(34.2537 4.02979)" fill="#c9fa00"/>
<rect width="4.02985" height="4.02985" transform="translate(38.2836 4.02979)" fill="#c9fa00"/>
<rect width="4.02985" height="4.02985" transform="translate(42.3134 4.02979)" fill="#c9fa00"/>
<rect width="4.02985" height="4.02985" transform="translate(34.2537 8.05963)" fill="#c9fa00"/>
<rect width="4.02985" height="4.02985" transform="translate(38.2836 8.05963)" fill="#c9fa00"/>
<rect width="4.02985" height="4.02985" transform="translate(42.3134 8.05963)" fill="#c9fa00"/>
<rect width="4.02985" height="4.02985" transform="translate(34.2537 12.0895)" fill="#c9fa00"/>
<rect width="4.02985" height="4.02985" transform="translate(38.2836 12.0895)" fill="#c9fa00"/>
<rect width="4.02985" height="4.02985" transform="translate(42.3134 12.0895)" fill="#c9fa00"/>
<rect width="4.02985" height="4.02985" transform="translate(34.2537 16.1193)" fill="#c9fa00"/>
<rect width="4.02985" height="4.02985" transform="translate(38.2836 16.1193)" fill="#c9fa00"/>
<rect width="4.02985" height="4.02985" transform="translate(42.3134 16.1193)" fill="#c9fa00"/>
<rect width="4.02985" height="4.02985" transform="translate(34.2537 20.1492)" fill="#c9fa00"/>
<rect width="4.02985" height="4.02985" transform="translate(50.3731 20.1492)" fill="#c9fa00"/>
<rect width="4.02985" height="4.02985" transform="translate(46.3433 20.1492)" fill="#c9fa00"/>
<rect width="4.02985" height="4.02985" transform="translate(38.2836 20.1492)" fill="#c9fa00"/>
<rect width="4.02985" height="4.02985" transform="translate(54.403 20.1492)" fill="#c9fa00"/>
<rect width="4.02985" height="4.02985" transform="translate(42.3134 20.1492)" fill="#c9fa00"/>
<rect width="4.02985" height="4.02985" transform="translate(58.4328 20.1492)" fill="#c9fa00"/>
<rect width="4.02985" height="4.02985" transform="translate(42.3134 24.179)" fill="#c9fa00"/>
<rect width="4.02985" height="4.02985" transform="translate(58.4328 24.179)" fill="#c9fa00"/>
<rect width="4.02985" height="4.02985" transform="translate(34.2537 24.179)" fill="#c9fa00"/>
<rect width="4.02985" height="4.02985" transform="translate(50.3731 24.179)" fill="#c9fa00"/>
<rect width="4.02985" height="4.02985" transform="translate(46.3433 24.179)" fill="#c9fa00"/>
<rect width="4.02985" height="4.02985" transform="translate(34.2537 28.2089)" fill="#7DAA0D"/>
<rect width="4.02985" height="4.02985" transform="translate(50.3731 28.2089)" fill="#7DAA0D"/>
<rect width="4.02985" height="4.02985" transform="translate(46.3433 28.2089)" fill="#7DAA0D"/>
<rect width="4.02985" height="4.02985" transform="translate(38.2836 24.179)" fill="#c9fa00"/>
<rect width="4.02985" height="4.02985" transform="translate(54.403 24.179)" fill="#c9fa00"/>
<rect width="4.02985" height="4.02985" transform="translate(38.2836 28.2089)" fill="#7DAA0D"/>
<rect width="4.02985" height="4.02985" transform="translate(54.403 28.2089)" fill="#7DAA0D"/>
<rect width="4.02985" height="4.02985" transform="translate(42.3134 28.2089)" fill="#7DAA0D"/>
<rect width="4.02985" height="4.02985" transform="translate(58.4328 28.2089)" fill="#7DAA0D"/>
</g>
<g clip-path="url(#clip2_10_3962)">
<rect width="4.02985" height="4.02985" transform="translate(72.5373 -6.10352e-05)" fill="#c9fa00"/>
<rect width="4.02985" height="4.02985" transform="translate(76.5672 -6.10352e-05)" fill="#c9fa00"/>
<rect width="4.02985" height="4.02985" transform="translate(80.597 -6.10352e-05)" fill="#c9fa00"/>
<rect width="4.02985" height="4.02985" transform="translate(84.6269 -6.10352e-05)" fill="#c9fa00"/>
<rect width="4.02985" height="4.02985" transform="translate(88.6567 -6.10352e-05)" fill="#c9fa00"/>
<rect width="4.02985" height="4.02985" transform="translate(68.5075 4.02979)" fill="#c9fa00"/>
<rect width="4.02985" height="4.02985" transform="translate(72.5373 4.02979)" fill="#c9fa00"/>
<rect width="4.02985" height="4.02985" transform="translate(76.5672 4.02979)" fill="#c9fa00"/>
<rect width="4.02985" height="4.02985" transform="translate(80.597 4.02979)" fill="#c9fa00"/>
<rect width="4.02985" height="4.02985" transform="translate(84.6269 4.02979)" fill="#c9fa00"/>
<rect width="4.02985" height="4.02985" transform="translate(88.6567 4.02979)" fill="#c9fa00"/>
<rect width="4.02985" height="4.02985" transform="translate(92.6866 4.02979)" fill="#c9fa00"/>
<rect width="4.02985" height="4.02985" transform="translate(68.5075 8.05963)" fill="#c9fa00"/>
<rect width="4.02985" height="4.02985" transform="translate(72.5373 8.05963)" fill="#c9fa00"/>
<rect width="4.02985" height="4.02985" transform="translate(76.5672 8.05963)" fill="#c9fa00"/>
<rect width="4.02985" height="4.02985" transform="translate(80.597 8.05963)" fill="#7DAA0D"/>
<rect width="4.02985" height="4.02985" transform="translate(84.6269 8.05963)" fill="#c9fa00"/>
<rect width="4.02985" height="4.02985" transform="translate(88.6567 8.05963)" fill="#c9fa00"/>
<rect width="4.02985" height="4.02985" transform="translate(92.6866 8.05963)" fill="#c9fa00"/>
<rect width="4.02985" height="4.02985" transform="translate(68.5075 12.0895)" fill="#c9fa00"/>
<rect width="4.02985" height="4.02985" transform="translate(72.5373 12.0895)" fill="#c9fa00"/>
<rect width="4.02985" height="4.02985" transform="translate(76.5672 12.0895)" fill="#c9fa00"/>
<rect width="4.02985" height="4.02985" transform="translate(84.6269 12.0895)" fill="#c9fa00"/>
<rect width="4.02985" height="4.02985" transform="translate(88.6567 12.0895)" fill="#c9fa00"/>
<rect width="4.02985" height="4.02985" transform="translate(92.6866 12.0895)" fill="#c9fa00"/>
<rect width="4.02985" height="4.02985" transform="translate(68.5075 16.1193)" fill="#c9fa00"/>
<rect width="4.02985" height="4.02985" transform="translate(72.5373 16.1193)" fill="#c9fa00"/>
<rect width="4.02985" height="4.02985" transform="translate(76.5672 16.1193)" fill="#c9fa00"/>
<rect width="4.02985" height="4.02985" transform="translate(80.597 16.1193)" fill="#c9fa00"/>
<rect width="4.02985" height="4.02985" transform="translate(84.6269 16.1193)" fill="#c9fa00"/>
<rect width="4.02985" height="4.02985" transform="translate(88.6567 16.1193)" fill="#c9fa00"/>
<rect width="4.02985" height="4.02985" transform="translate(92.6866 16.1193)" fill="#c9fa00"/>
<rect width="4.02985" height="4.02985" transform="translate(68.5075 20.1492)" fill="#c9fa00"/>
<rect width="4.02985" height="4.02985" transform="translate(72.5373 20.1492)" fill="#c9fa00"/>
<rect width="4.02985" height="4.02985" transform="translate(76.5672 20.1492)" fill="#c9fa00"/>
<rect width="4.02985" height="4.02985" transform="translate(80.597 20.1492)" fill="#7DAA0D"/>
<rect width="4.02985" height="4.02985" transform="translate(84.6269 20.1492)" fill="#c9fa00"/>
<rect width="4.02985" height="4.02985" transform="translate(88.6567 20.1492)" fill="#c9fa00"/>
<rect width="4.02985" height="4.02985" transform="translate(92.6866 20.1492)" fill="#c9fa00"/>
<rect width="4.02985" height="4.02985" transform="translate(68.5075 24.179)" fill="#c9fa00"/>
<rect width="4.02985" height="4.02985" transform="translate(72.5373 24.179)" fill="#c9fa00"/>
<rect width="4.02985" height="4.02985" transform="translate(76.5672 24.179)" fill="#c9fa00"/>
<rect width="4.02985" height="4.02985" transform="translate(84.6269 24.179)" fill="#c9fa00"/>
<rect width="4.02985" height="4.02985" transform="translate(88.6567 24.179)" fill="#c9fa00"/>
<rect width="4.02985" height="4.02985" transform="translate(92.6866 24.179)" fill="#c9fa00"/>
<rect width="4.02985" height="4.02985" transform="translate(68.5075 28.2089)" fill="#7DAA0D"/>
<rect width="4.02985" height="4.02985" transform="translate(72.5373 28.2089)" fill="#7DAA0D"/>
<rect width="4.02985" height="4.02985" transform="translate(76.5672 28.2089)" fill="#7DAA0D"/>
<rect width="4.02985" height="4.02985" transform="translate(84.6269 28.2089)" fill="#7DAA0D"/>
<rect width="4.02985" height="4.02985" transform="translate(88.6567 28.2089)" fill="#7DAA0D"/>
<rect width="4.02985" height="4.02985" transform="translate(92.6866 28.2089)" fill="#7DAA0D"/>
</g>
<g clip-path="url(#clip3_10_3962)">
<rect width="4.02985" height="4.02985" transform="translate(110.821 28.2089)" fill="#7DAA0D"/>
<rect width="4.02985" height="4.02985" transform="translate(114.851 28.2089)" fill="#7DAA0D"/>
<rect width="4.02985" height="4.02985" transform="translate(110.821 24.179)" fill="#c9fa00"/>
<rect width="4.02985" height="4.02985" transform="translate(114.851 24.179)" fill="#c9fa00"/>
<rect width="4.02985" height="4.02985" transform="translate(118.881 24.179)" fill="#c9fa00"/>
<rect width="4.02985" height="4.02985" transform="translate(118.881 28.2089)" fill="#7DAA0D"/>
<rect width="4.02985" height="4.02985" transform="translate(114.851 20.1492)" fill="#c9fa00"/>
<rect width="4.02985" height="4.02985" transform="translate(110.821 20.1492)" fill="#c9fa00"/>
<rect width="4.02985" height="4.02985" transform="translate(118.881 20.1492)" fill="#c9fa00"/>
<rect width="4.02985" height="4.02985" transform="translate(114.851 16.1193)" fill="#c9fa00"/>
<rect width="4.02985" height="4.02985" transform="translate(122.91 16.1193)" fill="#7DAA0D"/>
<rect width="4.02985" height="4.02985" transform="translate(110.821 16.1193)" fill="#c9fa00"/>
<rect width="4.02985" height="4.02985" transform="translate(118.881 16.1193)" fill="#c9fa00"/>
<rect width="4.02985" height="4.02985" transform="translate(106.791 16.1193)" fill="#7DAA0D"/>
<rect width="4.02985" height="4.02985" transform="translate(114.851 12.0895)" fill="#c9fa00"/>
<rect width="4.02985" height="4.02985" transform="translate(122.91 12.0895)" fill="#c9fa00"/>
<rect width="4.02985" height="4.02985" transform="translate(110.821 12.0895)" fill="#c9fa00"/>
<rect width="4.02985" height="4.02985" transform="translate(118.881 12.0895)" fill="#c9fa00"/>
<rect width="4.02985" height="4.02985" transform="translate(118.881 8.05963)" fill="#c9fa00"/>
<rect width="4.02985" height="4.02985" transform="translate(110.821 8.05963)" fill="#c9fa00"/>
<rect width="4.02985" height="4.02985" transform="translate(106.791 12.0895)" fill="#c9fa00"/>
<rect width="4.02985" height="4.02985" transform="translate(126.94 8.05963)" fill="#7DAA0D"/>
<rect width="4.02985" height="4.02985" transform="translate(106.791 8.05963)" fill="#c9fa00"/>
<rect width="4.02985" height="4.02985" transform="translate(122.91 8.05963)" fill="#c9fa00"/>
<rect width="4.02985" height="4.02985" transform="translate(102.761 8.05963)" fill="#7DAA0D"/>
<rect width="4.02985" height="4.02985" transform="translate(114.851 8.05963)" fill="#c9fa00"/>
<rect width="4.02985" height="4.02985" transform="translate(110.821 4.02979)" fill="#c9fa00"/>
<rect width="4.02985" height="4.02985" transform="translate(126.94 4.02979)" fill="#c9fa00"/>
<rect width="4.02985" height="4.02985" transform="translate(106.791 4.02979)" fill="#c9fa00"/>
<rect width="4.02985" height="4.02985" transform="translate(126.94 -6.10352e-05)" fill="#c9fa00"/>
<rect width="4.02985" height="4.02985" transform="translate(106.791 -6.10352e-05)" fill="#c9fa00"/>
<rect width="4.02985" height="4.02985" transform="translate(122.91 4.02979)" fill="#c9fa00"/>
<rect width="4.02985" height="4.02985" transform="translate(118.881 4.02979)" fill="#c9fa00"/>
<rect width="4.02985" height="4.02985" transform="translate(102.761 4.02979)" fill="#c9fa00"/>
<rect width="4.02985" height="4.02985" transform="translate(122.91 -6.10352e-05)" fill="#c9fa00"/>
<rect width="4.02985" height="4.02985" transform="translate(118.881 -6.10352e-05)" fill="#c9fa00"/>
<rect width="4.02985" height="4.02985" transform="translate(102.761 -6.10352e-05)" fill="#c9fa00"/>
<rect width="4.02985" height="4.02985" transform="translate(110.821 -6.10352e-05)" fill="#c9fa00"/>
</g>
<g clip-path="url(#clip4_10_3962)">
<rect width="4.02985" height="4.02985" transform="translate(4.02986 42.2388)" fill="#c9fa00"/>
<rect width="4.02985" height="4.02985" transform="translate(7.62939e-06 42.2388)" fill="#c9fa00"/>
<rect width="4.02985" height="4.02985" transform="translate(8.05971 42.2388)" fill="#c9fa00"/>
<rect width="4.02985" height="4.02985" transform="translate(12.0896 42.2388)" fill="#c9fa00"/>
<rect width="4.02985" height="4.02985" transform="translate(16.1194 42.2388)" fill="#c9fa00"/>
<rect width="4.02985" height="4.02985" transform="translate(7.62939e-06 46.2687)" fill="#c9fa00"/>
<rect width="4.02985" height="4.02985" transform="translate(4.02986 46.2687)" fill="#c9fa00"/>
<rect width="4.02985" height="4.02985" transform="translate(8.05971 46.2687)" fill="#c9fa00"/>
<rect width="4.02985" height="4.02985" transform="translate(12.0896 46.2687)" fill="#c9fa00"/>
<rect width="4.02985" height="4.02985" transform="translate(16.1194 46.2687)" fill="#c9fa00"/>
<rect width="4.02985" height="4.02985" transform="translate(20.1493 46.2687)" fill="#c9fa00"/>
<rect width="4.02985" height="4.02985" transform="translate(7.62939e-06 50.2985)" fill="#c9fa00"/>
<rect width="4.02985" height="4.02985" transform="translate(4.02986 50.2985)" fill="#c9fa00"/>
<rect width="4.02985" height="4.02985" transform="translate(8.05971 50.2985)" fill="#c9fa00"/>
<rect width="4.02985" height="4.02985" transform="translate(12.0896 50.2985)" fill="#c9fa00"/>
<rect width="4.02985" height="4.02985" transform="translate(12.0896 54.3284)" fill="#c9fa00"/>
<rect width="4.02985" height="4.02985" transform="translate(16.1194 50.2985)" fill="#c9fa00"/>
<rect width="4.02985" height="4.02985" transform="translate(20.1493 50.2985)" fill="#c9fa00"/>
<rect width="4.02985" height="4.02985" transform="translate(24.1791 50.2985)" fill="#c9fa00"/>
<rect width="4.02985" height="4.02985" transform="translate(7.62939e-06 54.3284)" fill="#c9fa00"/>
<rect width="4.02985" height="4.02985" transform="translate(4.02986 54.3284)" fill="#c9fa00"/>
<rect width="4.02985" height="4.02985" transform="translate(8.05971 54.3284)" fill="#c9fa00"/>
<rect width="4.02985" height="4.02985" transform="translate(16.1194 54.3284)" fill="#c9fa00"/>
<rect width="4.02985" height="4.02985" transform="translate(20.1493 54.3284)" fill="#c9fa00"/>
<rect width="4.02985" height="4.02985" transform="translate(24.1791 54.3284)" fill="#c9fa00"/>
<rect width="4.02985" height="4.02985" transform="translate(7.62939e-06 58.3582)" fill="#c9fa00"/>
<rect width="4.02985" height="4.02985" transform="translate(4.02986 58.3582)" fill="#c9fa00"/>
<rect width="4.02985" height="4.02985" transform="translate(8.05971 58.3582)" fill="#c9fa00"/>
<rect width="4.02985" height="4.02985" transform="translate(16.1194 58.3582)" fill="#c9fa00"/>
<rect width="4.02985" height="4.02985" transform="translate(20.1493 58.3582)" fill="#c9fa00"/>
<rect width="4.02985" height="4.02985" transform="translate(24.1791 58.3582)" fill="#c9fa00"/>
<rect width="4.02985" height="4.02985" transform="translate(7.62939e-06 62.3881)" fill="#c9fa00"/>
<rect width="4.02985" height="4.02985" transform="translate(4.02986 62.3881)" fill="#c9fa00"/>
<rect width="4.02985" height="4.02985" transform="translate(8.05971 62.3881)" fill="#c9fa00"/>
<rect width="4.02985" height="4.02985" transform="translate(12.0896 58.3582)" fill="#7DAA0D"/>
<rect width="4.02985" height="4.02985" transform="translate(16.1194 62.3881)" fill="#c9fa00"/>
<rect width="4.02985" height="4.02985" transform="translate(20.1493 62.3881)" fill="#c9fa00"/>
<rect width="4.02985" height="4.02985" transform="translate(24.1791 62.3881)" fill="#c9fa00"/>
<rect width="4.02985" height="4.02985" transform="translate(7.62939e-06 66.418)" fill="#c9fa00"/>
<rect width="4.02985" height="4.02985" transform="translate(4.02986 66.418)" fill="#c9fa00"/>
<rect width="4.02985" height="4.02985" transform="translate(8.05971 66.418)" fill="#c9fa00"/>
<rect width="4.02985" height="4.02985" transform="translate(16.1194 66.418)" fill="#c9fa00"/>
<rect width="4.02985" height="4.02985" transform="translate(20.1493 66.418)" fill="#c9fa00"/>
<rect width="4.02985" height="4.02985" transform="translate(24.1791 66.418)" fill="#c9fa00"/>
<rect width="4.02985" height="4.02985" transform="translate(7.62939e-06 70.4478)" fill="#7DAA0D"/>
<rect width="4.02985" height="4.02985" transform="translate(4.02986 70.4478)" fill="#7DAA0D"/>
<rect width="4.02985" height="4.02985" transform="translate(8.05971 70.4478)" fill="#7DAA0D"/>
<rect width="4.02985" height="4.02985" transform="translate(16.1194 70.4478)" fill="#7DAA0D"/>
<rect width="4.02985" height="4.02985" transform="translate(20.1493 70.4478)" fill="#7DAA0D"/>
<rect width="4.02985" height="4.02985" transform="translate(24.1791 70.4478)" fill="#7DAA0D"/>
</g>
<g clip-path="url(#clip5_10_3962)">
<rect width="4.02985" height="4.02985" transform="translate(38.2836 42.2388)" fill="#c9fa00"/>
<rect width="4.02985" height="4.02985" transform="translate(42.3134 42.2388)" fill="#c9fa00"/>
<rect width="4.02985" height="4.02985" transform="translate(46.3433 42.2388)" fill="#c9fa00"/>
<rect width="4.02985" height="4.02985" transform="translate(50.3731 42.2388)" fill="#c9fa00"/>
<rect width="4.02985" height="4.02985" transform="translate(34.2537 46.2687)" fill="#c9fa00"/>
<rect width="4.02985" height="4.02985" transform="translate(38.2836 46.2687)" fill="#c9fa00"/>
<rect width="4.02985" height="4.02985" transform="translate(42.3134 46.2687)" fill="#c9fa00"/>
<rect width="4.02985" height="4.02985" transform="translate(46.3433 46.2687)" fill="#c9fa00"/>
<rect width="4.02985" height="4.02985" transform="translate(46.3433 50.2985)" fill="#7DAA0D"/>
<rect width="4.02985" height="4.02985" transform="translate(54.403 46.2687)" fill="#c9fa00"/>
<rect width="4.02985" height="4.02985" transform="translate(50.3731 46.2687)" fill="#c9fa00"/>
<rect width="4.02985" height="4.02985" transform="translate(58.4328 46.2687)" fill="#c9fa00"/>
<rect width="4.02985" height="4.02985" transform="translate(54.403 42.2388)" fill="#c9fa00"/>
<rect width="4.02985" height="4.02985" transform="translate(34.2537 50.2985)" fill="#c9fa00"/>
<rect width="4.02985" height="4.02985" transform="translate(38.2836 50.2985)" fill="#c9fa00"/>
<rect width="4.02985" height="4.02985" transform="translate(42.3134 50.2985)" fill="#c9fa00"/>
<rect width="4.02985" height="4.02985" transform="translate(50.3731 50.2985)" fill="#c9fa00"/>
<rect width="4.02985" height="4.02985" transform="translate(54.403 50.2985)" fill="#c9fa00"/>
<rect width="4.02985" height="4.02985" transform="translate(58.4328 50.2985)" fill="#c9fa00"/>
<rect width="4.02985" height="4.02985" transform="translate(34.2537 54.3284)" fill="#c9fa00"/>
<rect width="4.02985" height="4.02985" transform="translate(38.2836 54.3284)" fill="#c9fa00"/>
<rect width="4.02985" height="4.02985" transform="translate(42.3134 54.3284)" fill="#c9fa00"/>
<rect width="4.02985" height="4.02985" transform="translate(50.3731 54.3284)" fill="#c9fa00"/>
<rect width="4.02985" height="4.02985" transform="translate(54.403 54.3284)" fill="#c9fa00"/>
<rect width="4.02985" height="4.02985" transform="translate(58.4328 54.3284)" fill="#c9fa00"/>
<rect width="4.02985" height="4.02985" transform="translate(34.2537 58.3582)" fill="#c9fa00"/>
<rect width="4.02985" height="4.02985" transform="translate(38.2836 58.3582)" fill="#c9fa00"/>
<rect width="4.02985" height="4.02985" transform="translate(42.3134 58.3582)" fill="#c9fa00"/>
<rect width="4.02985" height="4.02985" transform="translate(50.3731 58.3582)" fill="#c9fa00"/>
<rect width="4.02985" height="4.02985" transform="translate(54.403 58.3582)" fill="#c9fa00"/>
<rect width="4.02985" height="4.02985" transform="translate(58.4328 58.3582)" fill="#c9fa00"/>
<rect width="4.02985" height="4.02985" transform="translate(34.2537 62.3881)" fill="#c9fa00"/>
<rect width="4.02985" height="4.02985" transform="translate(38.2836 62.3881)" fill="#c9fa00"/>
<rect width="4.02985" height="4.02985" transform="translate(42.3134 62.3881)" fill="#c9fa00"/>
<rect width="4.02985" height="4.02985" transform="translate(46.3433 62.3881)" fill="#c9fa00"/>
<rect width="4.02985" height="4.02985" transform="translate(50.3731 62.3881)" fill="#c9fa00"/>
<rect width="4.02985" height="4.02985" transform="translate(54.403 62.3881)" fill="#c9fa00"/>
<rect width="4.02985" height="4.02985" transform="translate(58.4328 62.3881)" fill="#c9fa00"/>
<rect width="4.02985" height="4.02985" transform="translate(34.2537 66.418)" fill="#7DAA0D"/>
<rect width="4.02985" height="4.02985" transform="translate(38.2836 66.418)" fill="#c9fa00"/>
<rect width="4.02985" height="4.02985" transform="translate(42.3134 66.418)" fill="#c9fa00"/>
<rect width="4.02985" height="4.02985" transform="translate(46.3433 66.418)" fill="#c9fa00"/>
<rect width="4.02985" height="4.02985" transform="translate(50.3731 66.418)" fill="#c9fa00"/>
<rect width="4.02985" height="4.02985" transform="translate(54.403 66.418)" fill="#c9fa00"/>
<rect width="4.02985" height="4.02985" transform="translate(58.4328 66.418)" fill="#7DAA0D"/>
<rect width="4.02985" height="4.02985" transform="translate(38.2836 70.4478)" fill="#7DAA0D"/>
<rect width="4.02985" height="4.02985" transform="translate(42.3134 70.4478)" fill="#7DAA0D"/>
<rect width="4.02985" height="4.02985" transform="translate(46.3433 70.4478)" fill="#7DAA0D"/>
<rect width="4.02985" height="4.02985" transform="translate(50.3731 70.4478)" fill="#7DAA0D"/>
<rect width="4.02985" height="4.02985" transform="translate(54.403 70.4478)" fill="#7DAA0D"/>
</g>
<g clip-path="url(#clip6_10_3962)">
<rect width="4.02985" height="4.02985" transform="translate(80.597 50.2985)" fill="#7DAA0D"/>
<rect width="4.02985" height="4.02985" transform="translate(80.597 42.2388)" fill="#7DAA0D"/>
<rect width="4.02985" height="4.02985" transform="translate(80.597 62.3881)" fill="#7DAA0D"/>
<rect width="4.02985" height="4.02985" transform="translate(80.597 54.3284)" fill="#7DAA0D"/>
<rect width="4.02985" height="4.02985" transform="translate(80.597 46.2687)" fill="#7DAA0D"/>
<rect width="4.02985" height="4.02985" transform="translate(80.597 58.3582)" fill="#7DAA0D"/>
<rect width="4.02985" height="4.02985" transform="translate(68.5075 50.2985)" fill="#c9fa00"/>
<rect width="4.02985" height="4.02985" transform="translate(68.5075 42.2388)" fill="#c9fa00"/>
<rect width="4.02985" height="4.02985" transform="translate(68.5075 62.3881)" fill="#c9fa00"/>
<rect width="4.02985" height="4.02985" transform="translate(72.5373 50.2985)" fill="#c9fa00"/>
<rect width="4.02985" height="4.02985" transform="translate(72.5373 42.2388)" fill="#c9fa00"/>
<rect width="4.02985" height="4.02985" transform="translate(72.5373 62.3881)" fill="#c9fa00"/>
<rect width="4.02985" height="4.02985" transform="translate(76.5672 62.3881)" fill="#c9fa00"/>
<rect width="4.02985" height="4.02985" transform="translate(84.6269 62.3881)" fill="#c9fa00"/>
<rect width="4.02985" height="4.02985" transform="translate(88.6567 50.2985)" fill="#c9fa00"/>
<rect width="4.02985" height="4.02985" transform="translate(88.6567 42.2388)" fill="#c9fa00"/>
<rect width="4.02985" height="4.02985" transform="translate(88.6567 62.3881)" fill="#c9fa00"/>
<rect width="4.02985" height="4.02985" transform="translate(92.6866 50.2985)" fill="#c9fa00"/>
<rect width="4.02985" height="4.02985" transform="translate(92.6866 42.2388)" fill="#c9fa00"/>
<rect width="4.02985" height="4.02985" transform="translate(92.6866 62.3881)" fill="#c9fa00"/>
<rect width="4.02985" height="4.02985" transform="translate(68.5075 54.3284)" fill="#c9fa00"/>
<rect width="4.02985" height="4.02985" transform="translate(68.5075 46.2687)" fill="#c9fa00"/>
<rect width="4.02985" height="4.02985" transform="translate(68.5075 66.418)" fill="#7DAA0D"/>
<rect width="4.02985" height="4.02985" transform="translate(72.5373 54.3284)" fill="#c9fa00"/>
<rect width="4.02985" height="4.02985" transform="translate(72.5373 46.2687)" fill="#c9fa00"/>
<rect width="4.02985" height="4.02985" transform="translate(72.5373 66.418)" fill="#c9fa00"/>
<rect width="4.02985" height="4.02985" transform="translate(76.5672 54.3284)" fill="#c9fa00"/>
<rect width="4.02985" height="4.02985" transform="translate(76.5672 50.2985)" fill="#c9fa00"/>
<rect width="4.02985" height="4.02985" transform="translate(76.5672 66.418)" fill="#c9fa00"/>
<rect width="4.02985" height="4.02985" transform="translate(84.6269 54.3284)" fill="#c9fa00"/>
<rect width="4.02985" height="4.02985" transform="translate(84.6269 50.2985)" fill="#c9fa00"/>
<rect width="4.02985" height="4.02985" transform="translate(84.6269 66.418)" fill="#7DAA0D"/>
<rect width="4.02985" height="4.02985" transform="translate(88.6567 54.3284)" fill="#c9fa00"/>
<rect width="4.02985" height="4.02985" transform="translate(88.6567 46.2687)" fill="#c9fa00"/>
<rect width="4.02985" height="4.02985" transform="translate(88.6567 66.418)" fill="#c9fa00"/>
<rect width="4.02985" height="4.02985" transform="translate(92.6866 54.3284)" fill="#c9fa00"/>
<rect width="4.02985" height="4.02985" transform="translate(92.6866 46.2687)" fill="#c9fa00"/>
<rect width="4.02985" height="4.02985" transform="translate(92.6866 66.418)" fill="#c9fa00"/>
<rect width="4.02985" height="4.02985" transform="translate(68.5075 58.3582)" fill="#c9fa00"/>
<rect width="4.02985" height="4.02985" transform="translate(72.5373 58.3582)" fill="#c9fa00"/>
<rect width="4.02985" height="4.02985" transform="translate(72.5373 70.4478)" fill="#7DAA0D"/>
<rect width="4.02985" height="4.02985" transform="translate(76.5672 58.3582)" fill="#c9fa00"/>
<rect width="4.02985" height="4.02985" transform="translate(76.5672 70.4478)" fill="#c9fa00"/>
<rect width="4.02985" height="4.02985" transform="translate(84.6269 58.3582)" fill="#c9fa00"/>
<rect width="4.02985" height="4.02985" transform="translate(88.6567 58.3582)" fill="#c9fa00"/>
<rect width="4.02985" height="4.02985" transform="translate(88.6567 70.4478)" fill="#7DAA0D"/>
<rect width="4.02985" height="4.02985" transform="translate(92.6866 58.3582)" fill="#c9fa00"/>
<rect width="4.02985" height="4.02985" transform="translate(92.6866 70.4478)" fill="#c9fa00"/>
</g>
<g clip-path="url(#clip7_10_3962)">
<rect width="4.02985" height="4.02985" transform="translate(114.851 42.2388)" fill="#c9fa00"/>
<rect width="4.02985" height="4.02985" transform="translate(110.821 42.2388)" fill="#c9fa00"/>
<rect width="4.02985" height="4.02985" transform="translate(118.881 42.2388)" fill="#c9fa00"/>
<rect width="4.02985" height="4.02985" transform="translate(122.91 42.2388)" fill="#c9fa00"/>
<rect width="4.02985" height="4.02985" transform="translate(110.821 46.2687)" fill="#c9fa00"/>
<rect width="4.02985" height="4.02985" transform="translate(114.851 46.2687)" fill="#c9fa00"/>
<rect width="4.02985" height="4.02985" transform="translate(118.881 46.2687)" fill="#c9fa00"/>
<rect width="4.02985" height="4.02985" transform="translate(122.91 46.2687)" fill="#c9fa00"/>
<rect width="4.02985" height="4.02985" transform="translate(110.821 50.2985)" fill="#c9fa00"/>
<rect width="4.02985" height="4.02985" transform="translate(114.851 50.2985)" fill="#c9fa00"/>
<rect width="4.02985" height="4.02985" transform="translate(118.881 50.2985)" fill="#c9fa00"/>
<rect width="4.02985" height="4.02985" transform="translate(122.91 50.2985)" fill="#c9fa00"/>
<rect width="4.02985" height="4.02985" transform="translate(110.821 54.3284)" fill="#7DAA0D"/>
<rect width="4.02985" height="4.02985" transform="translate(114.851 54.3284)" fill="#c9fa00"/>
<rect width="4.02985" height="4.02985" transform="translate(118.881 54.3284)" fill="#c9fa00"/>
<rect width="4.02985" height="4.02985" transform="translate(122.91 54.3284)" fill="#7DAA0D"/>
<rect width="4.02985" height="4.02985" transform="translate(114.851 58.3582)" fill="#7DAA0D"/>
<rect width="4.02985" height="4.02985" transform="translate(118.881 58.3582)" fill="#7DAA0D"/>
<rect width="4.02985" height="4.02985" transform="translate(114.851 66.418)" fill="#c9fa00"/>
<rect width="4.02985" height="4.02985" transform="translate(118.881 66.418)" fill="#c9fa00"/>
<rect width="4.02985" height="4.02985" transform="translate(114.851 70.4478)" fill="#7DAA0D"/>
<rect width="4.02985" height="4.02985" transform="translate(118.881 70.4478)" fill="#7DAA0D"/>
</g>
<defs>
<clipPath id="clip0_10_3962">
<rect width="32.2388" height="32.2388" fill="white"/>
</clipPath>
<clipPath id="clip1_10_3962">
<rect width="32.2388" height="32.2388" fill="white" transform="translate(34.2537 -6.10352e-05)"/>
</clipPath>
<clipPath id="clip2_10_3962">
<rect width="32.2388" height="32.2388" fill="white" transform="translate(68.5075 -6.10352e-05)"/>
</clipPath>
<clipPath id="clip3_10_3962">
<rect width="32.2388" height="32.2388" fill="white" transform="translate(102.761 -6.10352e-05)"/>
</clipPath>
<clipPath id="clip4_10_3962">
<rect width="32.2388" height="32.2388" fill="white" transform="translate(7.62939e-06 42.2388)"/>
</clipPath>
<clipPath id="clip5_10_3962">
<rect width="32.2388" height="32.2388" fill="white" transform="translate(34.2537 42.2388)"/>
</clipPath>
<clipPath id="clip6_10_3962">
<rect width="32.2388" height="32.2388" fill="white" transform="translate(68.5075 42.2388)"/>
</clipPath>
<clipPath id="clip7_10_3962">
<rect width="32.2388" height="32.2388" fill="white" transform="translate(102.761 42.2388)"/>
</clipPath>
</defs>
</svg>
